<svg aria-hidden="true" style="position:absolute;width:0;height:0;overflow:hidden" xmlns="http://www.w3.org/2000/svg">
  <defs>
    <symbol id="icon-phone" viewBox="0 0 23 32">
      <path fill="#0b7572" style="fill:var(--color1, #0b7572)"
        d="M10.988 6.699 7.628.872C6.773-.61 5.293.246 5.293.246L3.221 1.444l5.069 8.791 2.072-1.198c1.48-.855.626-2.337.626-2.337zm8.611 24.838-5.069-8.791c-1.252.723-2.399-.613-3.455-2.046a33.016 33.016 0 0 1-3.473-6.024c-.712-1.631-1.249-3.322-.043-4.019L2.49 1.866C.704 2.899-2.85 8.397 4.215 20.649v.001c7.086 12.289 13.598 11.92 15.383 10.887zm3.428-3.958-3.36-5.827c-.855-1.482-2.335-.626-2.335-.626l-2.073 1.198 5.069 8.791 2.072-1.198c1.48-.856.626-2.338.626-2.338z" />
    </symbol>
    <symbol id="icon-letter" viewBox="0 0 51 32">
      <path fill="#0b7572" style="fill:var(--color1, #0b7572)"
        d="M3.746 0c-.736 0-1.412.218-1.99.577l22.166 18.481c1.015.847 2.382.847 3.395 0L49.444.577A3.752 3.752 0 0 0 47.454 0H3.747zM.215 2.481A3.63 3.63 0 0 0 0 3.693v24.615c0 .741.226 1.423.605 2l15.863-14.25L.214 2.481zm50.77 0L34.77 16.039l15.824 14.269a3.623 3.623 0 0 0 .605-2V3.693c0-.426-.081-.831-.215-1.212zM32.859 17.654l-3.941 3.288a5.176 5.176 0 0 1-6.615 0l-3.922-3.269L2.635 31.827c.352.108.723.173 1.112.173h43.707c.389 0 .76-.065 1.112-.173L32.859 17.654z" />
    </symbol>
    <symbol id="icon-whatsapp" viewBox="0 0 32 32">
      <path fill="#0b7572" style="fill:var(--color1, #0b7572)"
        d="M16 0C7.156 0 0 7.152 0 16c0 3.337 1.018 6.423 2.825 9.075.067.1.111.213.129.332s.008.241-.029.355L1.3 31.2l5.325-1.837a.802.802 0 0 1 .688.087A15.907 15.907 0 0 0 16.001 32c8.848 0 16-7.152 16-16s-7.152-16-16-16zM9.45 6.975l2.912 4.813-1.213 1.2a.8.8 0 0 0-.125.962c1.85 3.204 4.043 5.697 7.113 7.05a.804.804 0 0 0 .888-.162l1.288-1.288 4.7 2.938c-.52 1.171-1.199 1.869-1.975 2.275-.899.471-1.997.56-3.25.3-2.506-.52-5.533-2.489-8-5.012s-4.376-5.591-4.862-8.088c-.243-1.248-.136-2.323.325-3.175.397-.734 1.071-1.362 2.2-1.813z" />
    </symbol>
    <symbol id="icon-skype" viewBox="0 0 32 32">
      <path fill="#0b7572" style="fill:var(--color1, #0b7572)"
        d="M30.867 18.671c-.01.056-.028-.051 0 0a15.28 15.28 0 0 0 .252-2.746c0-2.045-.399-4.028-1.188-5.896a15.06 15.06 0 0 0-3.239-4.814A15.041 15.041 0 0 0 16.009.779c-.961 0-1.924.09-2.861.271l-.007.001A8.942 8.942 0 0 0 8.946 0C6.557 0 4.31.933 2.621 2.627S.001 6.573.001 8.968c0 1.525.391 3.023 1.125 4.347a15.293 15.293 0 0 0-.228 2.611c0 2.045.399 4.029 1.188 5.896a15.071 15.071 0 0 0 3.237 4.814 15.014 15.014 0 0 0 4.804 3.245 14.95 14.95 0 0 0 5.882 1.192c.888 0 1.778-.081 2.646-.236a8.92 8.92 0 0 0 4.401 1.162 8.868 8.868 0 0 0 6.324-2.626 8.913 8.913 0 0 0 2.62-6.34 8.98 8.98 0 0 0-1.133-4.363zm-14.798 6.531c-5.368 0-7.77-2.646-7.77-4.628 0-1.017.749-1.73 1.781-1.73 2.297 0 1.703 3.307 5.989 3.307 2.194 0 3.406-1.194 3.406-2.416 0-.735-.362-1.55-1.807-1.907l-4.775-1.195c-3.846-.967-4.543-3.05-4.543-5.009 0-4.067 3.82-5.594 7.407-5.594 3.305 0 7.2 1.831 7.2 4.271 0 1.046-.903 1.653-1.935 1.653-1.96 0-1.6-2.72-5.549-2.72-1.96 0-3.045.89-3.045 2.162 0 1.271 1.548 1.677 2.892 1.983l3.534.787c3.871.865 4.853 3.13 4.853 5.264 0 3.305-2.53 5.773-7.638 5.773z" />
    </symbol>
    <symbol id="icon-vk" viewBox="0 0 55 32">
      <path fill="#bfbfc7" style="fill:var(--color2, #bfbfc7)"
        d="M45.298 18.35c-.883-1.12-.63-1.618 0-2.619.011-.011 7.297-10.128 8.047-13.559l.005-.002c.373-1.25 0-2.169-1.804-2.169h-5.969c-1.519 0-2.22.789-2.595 1.671 0 0-3.039 7.31-7.338 12.048-1.387 1.369-2.029 1.808-2.786 1.808-.373 0-.953-.439-.953-1.689V2.17c0-1.499-.425-2.169-1.683-2.169h-9.385c-.953 0-1.519.699-1.519 1.351 0 1.422 2.149 1.749 2.373 5.749v8.679c0 1.902-.344 2.251-1.105 2.251-2.029 0-6.953-7.339-9.872-15.739C10.125.662 9.549.004 8.019.004H2.048C.344.004.001.793.001 1.675c0 1.559 2.029 9.31 9.435 19.55 4.936 6.99 11.887 10.777 18.21 10.777 3.801 0 4.265-.841 4.265-2.288 0-6.679-.344-7.31 1.56-7.31.883 0 2.402.439 5.95 3.81 4.056 3.998 4.722 5.787 6.992 5.787h5.969c1.701 0 2.563-.841 2.068-2.501-1.135-3.49-8.805-10.67-9.151-11.15z" />
    </symbol>
    <symbol id="icon-linkedin" viewBox="0 0 32 32">
      <path fill="#bfbfc7" style="fill:var(--color2, #bfbfc7)"
        d="M31.992 32v-.001H32V20.455c0-5.648-1.228-9.998-7.897-9.998-3.206 0-5.357 1.742-6.236 3.393h-.093v-2.866h-6.323v21.015h6.584V21.593c0-2.74.524-5.389 3.952-5.389 3.377 0 3.427 3.127 3.427 5.565V32h6.577zM.525 10.984h6.592v21.015H.525V10.984zM3.818 0C1.71 0 0 1.693 0 3.78s1.71 3.815 3.818 3.815A3.83 3.83 0 0 0 7.636 3.78C7.635 1.693 5.924 0 3.818 0z" />
    </symbol>
    <symbol id="icon-instagram" viewBox="0 0 32 32">
      <path fill="#bfbfc7" style="fill:var(--color2, #bfbfc7)"
        d="M23.338 0H8.662C3.886 0 0 3.886 0 8.662v14.676C0 28.114 3.886 32 8.662 32h14.676C28.114 32 32 28.114 32 23.338V8.662C32 3.886 28.114 0 23.338 0zM16 24.75c-4.825 0-8.75-3.925-8.75-8.75S11.175 7.25 16 7.25s8.75 3.925 8.75 8.75-3.925 8.75-8.75 8.75zm8.959-15.436c-1.426 0-2.585-1.16-2.585-2.585s1.16-2.586 2.585-2.586c1.426 0 2.586 1.16 2.586 2.586s-1.16 2.585-2.586 2.585z" />
      <path fill="#bfbfc7" style="fill:var(--color2, #bfbfc7)"
        d="M15.999 10.666c-2.941 0-5.333 2.392-5.333 5.333s2.393 5.333 5.333 5.333c2.941 0 5.333-2.393 5.333-5.333s-2.392-5.333-5.333-5.333zM24.959 6.019a.71.71 0 1 0 .001 1.42.71.71 0 0 0-.001-1.42z" />
    </symbol>
    <symbol id="icon-logo" viewBox="0 0 57 32">
      <path fill="#0b7572" style="fill:var(--color1, #0b7572)"
        d="m1.31 8.605.038 4.221a12.552 12.552 0 0 1 3.235-5.895 4.48 4.48 0 0 1 .43-.408L1.311 8.605zm19.204 17.477c.43 0 .767.316.785.726a.772.772 0 0 1-.486.707l-6.62 3.886a.658.658 0 0 1-.691.018L7.2 27.738l-.018-.018-6.825-3.831a.66.66 0 0 1-.336-.576l.056-7.308-.074-7.734a.66.66 0 0 1 .336-.613l6.396-3.607L13.447.108a.66.66 0 0 1 .692-.018l6.301 3.681h.018a.7.7 0 0 1 .393.632c0 .41-.318.744-.748.744a.835.835 0 0 1-.486-.149 12.137 12.137 0 0 0-2.861-1.097 12.153 12.153 0 0 0-3.179-.353 12.233 12.233 0 0 0-11.158 7.738 12.092 12.092 0 0 0 .179 9.327 12.12 12.12 0 0 0 2.734 3.891 12.319 12.319 0 0 0 8.732 3.403 12.05 12.05 0 0 0 3.161-.483c1.02-.301 2-.726 2.917-1.264l.018-.018c.093-.019.224-.056.356-.056v-.001zM1.366 18.739l-.037 4.221 3.721 2.082-.093-.094a12.805 12.805 0 0 1-3.59-6.21zm8.807 9.221 3.646 2.138 3.665-2.157-.132.038a12.419 12.419 0 0 1-3.309.502 12.25 12.25 0 0 1-3.871-.52zm7.274-24.412-3.665-2.139-3.665 2.157a13.817 13.817 0 0 1 3.422-.539 13.376 13.376 0 0 1 3.329.372c.206.055.392.092.58.149v.001z" />
      <path fill="#0b7572" style="fill:var(--color1, #0b7572)"
        d="M17.485 9.107c.317.167.43.576.261.892s-.579.428-.898.261a6.355 6.355 0 0 0-1.533-.595 6.855 6.855 0 0 0-1.627-.186 6.311 6.311 0 0 0-4.413 1.915c-1.121 1.152-1.776 2.733-1.758 4.462a6.249 6.249 0 0 0 1.926 4.388 6.26 6.26 0 0 0 4.488 1.748c.374 0 .673.279.673.651s-.28.67-.655.67a7.653 7.653 0 0 1-7.144-4.544 7.57 7.57 0 0 1 1.497-8.304 7.601 7.601 0 0 1 5.347-2.325 7.12 7.12 0 0 1 1.982.224 9.407 9.407 0 0 1 1.852.743z" />
      <path fill="#0b7572" style="fill:var(--color1, #0b7572)"
        d="M8.678 8.512c.13-.092.299-.055.393.074s.056.298-.075.391a8.206 8.206 0 0 0-2.636 3.031 8.452 8.452 0 0 0-.898 3.905 8.254 8.254 0 0 0 2.562 5.819l.018.018a8.238 8.238 0 0 0 5.927 2.287 8.347 8.347 0 0 0 2.151-.335 8.254 8.254 0 0 0 2.001-.874c.131-.074.318-.038.392.092s.038.316-.094.391c-.668.4-1.384.713-2.132.93a8.7 8.7 0 0 1-2.3.353 8.896 8.896 0 0 1-6.339-2.454l-.018-.018a8.722 8.722 0 0 1-2.73-6.209c-.038-1.469.318-2.901.954-4.184a9.294 9.294 0 0 1 2.824-3.217z" />
      <path fill="#0b7572" style="fill:var(--color1, #0b7572)"
        d="M11.203 16.043c-.018 0-.038-.13-.038-.279s.019-.279.038-.279h2.318v-2.566c0-.018.132-.037.281-.037s.281.018.281.037v2.566h2.318c.02 0 .038.13.038.279s-.019.279-.038.279h-2.319v2.566c0 .018-.131.038-.281.038s-.28-.019-.28-.038v-2.566h-2.319zm20.66-6.379h-8.502c-.323 0-.516.106-.516.51v10.54c0 .404.194.51.516.51h1.76c.344 0 .515-.106.515-.51v-8.585h3.95v8.585c0 .404.193.51.515.51h1.761c.322 0 .515-.106.515-.51v-10.54c0-.404-.193-.51-.515-.51zm11.293 12.473c0 .404.193.51.516.51h1.459c.323 0 .516-.106.516-.51V19.12c0-.319-.107-.51-.516-.51h-.858v-8.436c0-.404-.193-.51-.515-.51h-6.806c-.322 0-.515.106-.515.51l-.558 7.267c-.043.659-.215 1.169-1.181 1.169-.408 0-.515.191-.515.51v3.017c0 .404.193.51.515.51h1.482c.322 0 .515-.106.515-.51v-1.105h6.484v1.105h-.022zm-4.551-4.548.45-5.546h2.533v6.694h-3.692c.429-.149.665-.51.709-1.148zm17.196-2.359c.15-.063 1.288-.637 1.288-2.401 0-1.636-1.245-3.166-4.122-3.166h-4.959c-.408 0-.515.191-.515.51v10.54c0 .319.107.51.515.51h5.217c2.469 0 4.23-1.147 4.23-3.378a2.818 2.818 0 0 0-1.653-2.614h-.001zm-2.555 3.485h-2.983v-6.587h2.705c.923 0 1.482.191 1.482.978 0 .68-.451 1.04-1.482 1.04h-.236c-.408 0-.515.192-.515.51v1.339c0 .319.107.51.515.51h.408c.859 0 1.482.255 1.482 1.062s-.494 1.148-1.374 1.148l-.001-.001z" />
    </symbol>
    <symbol id="icon-Grouplock" viewBox="0 0 31 32">
      <path fill="#0b7572" style="fill:var(--color1, #0b7572)"
        d="M29.05 9.39H1.923a1.198 1.198 0 0 0-1.201 1.201v19.374a1.198 1.198 0 0 0 1.201 1.201H29.05c.328 0 .631-.133.843-.352.218-.218.352-.516.352-.849V10.591c0-.328-.133-.631-.352-.849s-.516-.352-.843-.352zM16.051 21.989v6.224c0 .309-.255.564-.564.564s-.564-.255-.564-.564v-6.224a1.546 1.546 0 0 1 .564-2.985 1.546 1.546 0 0 1 .564 2.985z" />
      <path fill="#0b7572" style="fill:var(--color1, #0b7572)"
        d="M27.528 11.78H3.446A12.007 12.007 0 0 1 6.97 3.634C9.148 1.45 12.162.104 15.486.104s6.339 1.353 8.516 3.53a12.01 12.01 0 0 1 3.524 8.146zm-2.554-2.214a9.732 9.732 0 0 0-2.535-4.361c-1.85-1.85-4.331-2.881-6.952-2.881s-5.101 1.031-6.951 2.881A9.771 9.771 0 0 0 6 9.566h18.974z" />
    </symbol>
    <symbol id="icon-coin" viewBox="0 0 32 32">
      <path fill="#0b7572" style="fill:var(--color1, #0b7572)"
        d="M7.36 7.361C9.571 5.15 12.627 3.78 16 3.78s6.429 1.37 8.64 3.581c2.21 2.211 3.581 5.267 3.581 8.64s-1.37 6.429-3.581 8.64c-2.211 2.211-5.267 3.581-8.64 3.581s-6.429-1.37-8.64-3.581-3.581-5.267-3.581-8.64c0-3.372 1.37-6.429 3.581-8.64zM31.253 16c0-4.213-1.71-8.026-4.469-10.785S20.212.746 15.999.746 7.973 2.456 5.214 5.215.745 11.787.745 16s1.71 8.026 4.469 10.785 6.572 4.469 10.785 4.469c4.212 0 8.026-1.71 10.785-4.469S31.253 20.213 31.253 16z" />
      <path fill="#0b7572" style="fill:var(--color1, #0b7572)"
        d="M12.474 12.526c0-1.084.381-1.96 1.15-2.628.512-.453 1.275-.727 2.282-.828v-.727h.9v.727c.882.083 1.585.346 2.103.775.667.548 1.067 1.311 1.198 2.276l-1.573.238c-.089-.596-.274-1.055-.56-1.37-.28-.316-.673-.53-1.168-.632v4.385c.763.191 1.275.346 1.519.453.471.209.858.459 1.156.757s.53.655.691 1.066c.161.411.244.858.244 1.335 0 1.055-.34 1.93-1.007 2.64s-1.537 1.084-2.604 1.132v1.537h-.9v-1.519c-.763-.095-1.376-.268-1.853-.512s-.888-.644-1.233-1.186c-.345-.548-.548-1.216-.602-2.002l1.531-.286c.119.816.328 1.418.626 1.799.429.542.941.84 1.537.906v-4.838c-.626-.119-1.263-.363-1.918-.727a2.828 2.828 0 0 1-1.12-1.126c-.262-.477-.393-1.019-.393-1.633l-.006-.012zM27.203 16c0-3.092-1.251-5.893-3.283-7.919-2.026-2.026-4.826-3.283-7.919-3.283s-5.893 1.251-7.919 3.283C6.056 10.107 4.799 12.907 4.799 16s1.251 5.893 3.283 7.919c2.026 2.026 4.826 3.283 7.919 3.283s5.893-1.251 7.919-3.283A11.167 11.167 0 0 0 27.203 16z" />
      <path fill="#0b7572" style="fill:var(--color1, #0b7572)"
        d="M15.906 14.546v-4.207c-.59.089-1.061.328-1.4.709s-.512.834-.512 1.364c0 .518.143.953.435 1.299.292.352.78.632 1.472.834h.006zM18.843 18.449c0-.548-.137-.995-.411-1.329s-.822-.638-1.639-.9v4.63c.59-.071 1.079-.328 1.466-.769s.578-.983.578-1.633h.006z" />
    </symbol>
    <symbol id="icon-list" viewBox="0 0 25 32">
      <path fill="#0b7572" style="fill:var(--color1, #0b7572)"
        d="M3.888 23.888h4.351c.286 0 .518.232.518.518v4.351a.518.518 0 0 1-.518.518H3.888a.518.518 0 0 1-.518-.518v-4.351c0-.286.232-.518.518-.518zm17.299-6.075h-7.976a.518.518 0 0 1 0-1.036h7.976a.518.518 0 0 1 0 1.036zM9.079 7.271l-4.07 4.07a.518.518 0 0 1-.823-.098L2.955 9.11a.52.52 0 0 1 .189-.707.52.52 0 0 1 .707.189l.896 1.554 3.601-3.601c.201-.201.53-.201.731 0s.201.53 0 .731V7.27zM6.422.727H.518A.518.518 0 0 0 0 1.245v30.162c0 .286.232.518.518.518h23.557a.517.517 0 0 0 .518-.518V1.245a.518.518 0 0 0-.518-.518h-5.904v2.821a.518.518 0 0 1-.518.518H6.941a.518.518 0 0 1-.518-.518V.727zm6.27 25.854c0-.286.232-.518.518-.518h7.976a.518.518 0 0 1 0 1.036H13.21a.518.518 0 0 1-.518-.518zM9.079 15.625l-4.07 4.07a.518.518 0 0 1-.823-.098l-1.231-2.133a.52.52 0 0 1 .189-.707.52.52 0 0 1 .707.189l.896 1.554 3.601-3.601c.201-.201.53-.201.731 0s.201.53 0 .731v-.006zm4.131-6.166a.518.518 0 0 1 0-1.036h7.976a.518.518 0 0 1 0 1.036H13.21z" />
      <path fill="#0b7572" style="fill:var(--color1, #0b7572)" d="M17.652.746H6.94v2.803h10.712V.746z" />
    </symbol>
    <symbol id="icon-planet" viewBox="0 0 29 32">
      <path fill="#0b7572" style="fill:var(--color1, #0b7572)"
        d="M3.381 9.558C1.682 11.861.679 14.708.679 17.791s1.003 5.93 2.702 8.233a28.782 28.782 0 0 1 5.102-1.336c.218-.036.435-.073.653-.103-.423-2.031-.659-4.34-.659-6.788 0-1.13.048-2.23.145-3.288l-.465.756-3.3-5.204a22.954 22.954 0 0 1-1.475-.496v-.006zM8.633 25.589c-1.674.284-3.24.689-4.648 1.191.363.429.75.834 1.167 1.209a13.797 13.797 0 0 0 7.024 3.464c-.774-.78-1.463-1.928-2.025-3.367a21.25 21.25 0 0 1-.816-2.611c-.236.036-.472.073-.701.115zM10.259 25.354c.218.87.471 1.674.756 2.4.943 2.412 2.194 3.905 3.536 3.905s2.593-1.493 3.536-3.905c.284-.725.538-1.529.756-2.4a36.423 36.423 0 0 0-8.572 0h-.012zM9.401 17.786c0 2.412.236 4.685.653 6.661a37.438 37.438 0 0 1 8.994 0c.417-1.983.653-4.25.653-6.661s-.236-4.685-.653-6.661a37.438 37.438 0 0 1-8.396.067l-.562.913-.308.502a34.086 34.086 0 0 0-.381 5.186v-.006zM11.184 10.32c1.088.103 2.212.151 3.361.151 1.481 0 2.914-.085 4.286-.254a19.866 19.866 0 0 0-.756-2.4c-.943-2.412-2.194-3.905-3.536-3.905-.399 0-.792.133-1.173.387.018.115.03.236.036.357v.024c0 .012 0 .03.006.042.006.06.012.121.012.181V5.133c0 1.064-.441 2.237-.997 3.137l-1.251 2.043.012.006zM18.939 7.485c.308.786.58 1.662.816 2.611.236-.036.472-.073.701-.115a27.708 27.708 0 0 0 4.648-1.191 13.873 13.873 0 0 0-8.185-4.679c.774.78 1.463 1.928 2.025 3.367l-.006.006zM19.955 10.997c.423 2.031.659 4.34.659 6.788s-.236 4.757-.659 6.788c.218.03.435.067.653.103 1.844.314 3.56.768 5.102 1.336 1.699-2.303 2.702-5.15 2.702-8.233s-1.003-5.93-2.702-8.233a28.782 28.782 0 0 1-5.102 1.336c-.218.036-.435.073-.653.103v.012zM19.756 25.48c-.23.949-.508 1.826-.816 2.611-.562 1.433-1.245 2.587-2.025 3.367a13.786 13.786 0 0 0 7.018-3.464c.411-.381.804-.786 1.167-1.215-1.408-.502-2.974-.901-4.648-1.191-.23-.042-.465-.079-.701-.115l.006.006zM9.546 5.835a2.075 2.075 0 0 1-2.938 0 2.075 2.075 0 0 1 0-2.938 2.075 2.075 0 0 1 2.938 0 2.074 2.074 0 0 1 0 2.938zm-.205 5.73-.036.054.036-.054zm3.155-6.824v.012-.012zM4.952 2.009a4.413 4.413 0 0 0-1.3 3.131c0 .744.405 1.777.997 2.895.006.006.012.012.024.018.03.03.06.066.079.103l.399.629c.006.006.006.012.012.018l2.992 4.715.641-1.04c.012-.018.024-.042.036-.06l.484-.786.036-.06L11.667 7.8c.514-1.034.858-1.971.858-2.654v-.187c0-.036-.006-.085-.012-.145 0-.012 0-.024-.006-.042V4.76a4.426 4.426 0 0 0-1.281-2.732c-.804-.804-1.91-1.3-3.131-1.3s-2.327.496-3.131 1.3l-.012-.018z" />
    </symbol>
    <symbol id="icon-box" viewBox="0 0 53 32">
      <path fill="#0b7572" style="fill:var(--color1, #0b7572)"
        d="m18.08 24.953 16.225 6.78V15.218L18.079 9.191v15.762zM46.767 16.319l-4.52 1.622v-4.578l-5.969 2.086v16.283l16.805-6.78V9.48l-6.316 2.26v4.578zm-5.389 11.706-.695.29v-3.651l.695-.232v3.593zm1.216-.464-.695.29V24.2l.695-.232v3.593zm2.434-.985-.695.232v-3.593l.695-.232v3.593zm1.217-.522-.695.29v-3.535l.695-.232v3.477zm2.434-4.462.695-.232v3.419l-.695.29v-3.477zm-1.391.522.695-.232v3.477l-.695.29v-3.535zM46.765 9.481l6.316-2.318-17.5-6.143-5.621 1.97 16.805 6.374v.116zM24.976 4.729 18.08 7.163l17.5 6.374 6.606-2.376-17.211-6.432zM.928 23.446h14.371v-2.898H2.261L.928 23.446zM3.305 18.347H15.3V15.45H4.638l-1.333 2.897zM5.68 13.074v.232h9.619v-2.897H6.954l-1.275 2.666z" />
    </symbol>
    <symbol id="icon-icon" viewBox="0 0 29 32">
      <path fill="#0b7572" style="fill:var(--color1, #0b7572)"
        d="M23.828 20.806H5.38a2.698 2.698 0 0 0-1.919-2.593V5.704a2.598 2.598 0 0 0 1.798-1.807h8.645a2.67 2.67 0 0 0 1.806 1.806V9.74l-1.617 1.625-.864-.864a.775.775 0 0 0-.541-.226.76.76 0 0 0-.541.226.769.769 0 0 0 0 1.09l.864.864-.864.864a.767.767 0 0 0-.167.84.783.783 0 0 0 .415.417.755.755 0 0 0 .834-.167l.864-.864 1.841 1.841a.775.775 0 0 0 .541.226.755.755 0 0 0 .541-.226l1.911-1.85.864.864a.779.779 0 0 0 .556.266.766.766 0 0 0 .743-.491.763.763 0 0 0-.026-.615.767.767 0 0 0-.193-.249l-.864-.864.864-.864a.767.767 0 0 0 .167-.84.783.783 0 0 0-.415-.417.755.755 0 0 0-.834.167l-.864.864-1.608-1.617V5.703A2.688 2.688 0 0 0 15.888.52a2.688 2.688 0 0 0-1.917 1.837H5.326A2.697 2.697 0 0 0 3.416.541a2.698 2.698 0 0 0-2.544.688A2.683 2.683 0 0 0 .139 3.76 2.686 2.686 0 0 0 1.92 5.702v12.526a2.7 2.7 0 0 0-1.919 2.593v.692a.2.2 0 0 0 0 .069v4.616a5.387 5.387 0 0 0 5.377 5.359h18.448a5.378 5.378 0 0 0 0-10.754zm-6.052-8.359-1.262 1.305-1.288-1.305 1.288-1.297 1.262 1.297zm6.052 16.036a2.307 2.307 0 1 1 2.298-2.298 2.302 2.302 0 0 1-2.3 2.3zm-20.748-2.3a2.307 2.307 0 1 1 4.617-.018 2.307 2.307 0 0 1-4.618.017zm16.901 0a2.306 2.306 0 0 1-1.427 2.133 2.31 2.31 0 0 1-3.147-1.688 2.308 2.308 0 1 1 4.574-.445zm-6.147 0a2.304 2.304 0 0 1-1.425 2.132 2.307 2.307 0 0 1-3.148-1.683 2.315 2.315 0 0 1 2.263-2.759 2.308 2.308 0 0 1 2.308 2.308z" />
      <path fill="#0b7572" style="fill:var(--color1, #0b7572)"
        d="M5.38 26.953a.77.77 0 1 0 0-1.539.77.77 0 0 0 0 1.539zM11.526 26.953a.77.77 0 1 0 0-1.539.77.77 0 0 0 0 1.539zM17.681 26.953a.77.77 0 1 0 0-1.539.77.77 0 0 0 0 1.539zM23.828 26.953a.77.77 0 1 0 0-1.539.77.77 0 0 0 0 1.539z" />
    </symbol>
    <symbol id="icon-build" viewBox="0 0 32 32">
      <path fill="#0b7572" style="fill:var(--color1, #0b7572)"
        d="M12.295.439c-2.228 4.808-7.582.811-10.374 3.705.65-4.978 4.994-.967 10.374-3.705zM5.626 4.885v9.077l5.187 2.779v-5.187l10.374 5.187v-5.187l10.374 5.187v14.82H.44V4.886h5.187zm21.859 16.672h-5.187v4.446h5.187v-4.446zm-8.891 0h-5.187v4.446h5.187v-4.446zm-8.892 0H4.515v4.446h5.187v-4.446z" />
    </symbol>
  </defs>
</svg>