<!-- Generated by IcoMoon.io -->
<svg version="1.1" xmlns="http://www.w3.org/2000/svg" width="55" height="32" viewBox="0 0 55 32">
<title>vk</title>
<path fill="#bfbfc7" d="M45.298 18.35c-0.883-1.12-0.63-1.618 0-2.619 0.011-0.011 7.297-10.128 8.047-13.559l0.005-0.002c0.373-1.25 0-2.169-1.804-2.169h-5.969c-1.519 0-2.22 0.789-2.595 1.671 0 0-3.039 7.31-7.338 12.048-1.387 1.369-2.029 1.808-2.786 1.808-0.373 0-0.953-0.439-0.953-1.689v-11.669c0-1.499-0.425-2.169-1.683-2.169h-9.385c-0.953 0-1.519 0.699-1.519 1.351 0 1.422 2.149 1.749 2.373 5.749v8.679c0 1.902-0.344 2.251-1.105 2.251-2.029 0-6.953-7.339-9.872-15.739-0.589-1.63-1.165-2.288-2.695-2.288h-5.971c-1.704 0-2.047 0.789-2.047 1.671 0 1.559 2.029 9.31 9.435 19.55 4.936 6.99 11.887 10.777 18.21 10.777 3.801 0 4.265-0.841 4.265-2.288 0-6.679-0.344-7.31 1.56-7.31 0.883 0 2.402 0.439 5.95 3.81 4.056 3.998 4.722 5.787 6.992 5.787h5.969c1.701 0 2.563-0.841 2.068-2.501-1.135-3.49-8.805-10.67-9.151-11.15z"></path>
</svg>
