<!-- Generated by IcoMoon.io -->
<svg version="1.1" xmlns="http://www.w3.org/2000/svg" width="53" height="32" viewBox="0 0 53 32">
<title>box</title>
<path fill="#0b7572" d="M18.080 24.953l16.225 6.78v-16.515l-16.226-6.027v15.762z"></path>
<path fill="#0b7572" d="M46.767 16.319l-4.52 1.622v-4.578l-5.969 2.086v16.283l16.805-6.78v-15.472l-6.316 2.26v4.578zM41.378 28.025l-0.695 0.29v-3.651l0.695-0.232v3.593zM42.594 27.561l-0.695 0.29v-3.651l0.695-0.232v3.593zM45.028 26.576l-0.695 0.232v-3.593l0.695-0.232v3.593zM46.245 26.054l-0.695 0.29v-3.535l0.695-0.232v3.477zM48.679 21.592l0.695-0.232v3.419l-0.695 0.29v-3.477zM47.288 22.114l0.695-0.232v3.477l-0.695 0.29v-3.535z"></path>
<path fill="#0b7572" d="M46.765 9.481l6.316-2.318-17.5-6.143-5.621 1.97 16.805 6.374v0.116z"></path>
<path fill="#0b7572" d="M24.976 4.729l-6.896 2.434 17.5 6.374 6.606-2.376-17.211-6.432z"></path>
<path fill="#0b7572" d="M0.928 23.446h14.371v-2.898h-13.038l-1.333 2.898z"></path>
<path fill="#0b7572" d="M3.305 18.347h11.995v-2.897h-10.662l-1.333 2.897z"></path>
<path fill="#0b7572" d="M5.68 13.074v0.232h9.619v-2.897h-8.345l-1.275 2.666z"></path>
</svg>
