<!-- Generated by IcoMoon.io -->
<svg version="1.1" xmlns="http://www.w3.org/2000/svg" width="32" height="32" viewBox="0 0 32 32">
<title>coin</title>
<path fill="#0b7572" d="M7.36 7.361c2.211-2.211 5.267-3.581 8.64-3.581s6.429 1.37 8.64 3.581c2.21 2.211 3.581 5.267 3.581 8.64s-1.37 6.429-3.581 8.64c-2.211 2.211-5.267 3.581-8.64 3.581s-6.429-1.37-8.64-3.581-3.581-5.267-3.581-8.64c0-3.372 1.37-6.429 3.581-8.64zM31.253 16c0-4.213-1.71-8.026-4.469-10.785s-6.572-4.469-10.785-4.469c-4.213 0-8.026 1.71-10.785 4.469s-4.469 6.572-4.469 10.785c0 4.213 1.71 8.026 4.469 10.785s6.572 4.469 10.785 4.469c4.212 0 8.026-1.71 10.785-4.469s4.469-6.572 4.469-10.785z"></path>
<path fill="#0b7572" d="M12.474 12.526c0-1.084 0.381-1.96 1.15-2.628 0.512-0.453 1.275-0.727 2.282-0.828v-0.727h0.9v0.727c0.882 0.083 1.585 0.346 2.103 0.775 0.667 0.548 1.067 1.311 1.198 2.276l-1.573 0.238c-0.089-0.596-0.274-1.055-0.56-1.37-0.28-0.316-0.673-0.53-1.168-0.632v4.385c0.763 0.191 1.275 0.346 1.519 0.453 0.471 0.209 0.858 0.459 1.156 0.757s0.53 0.655 0.691 1.066c0.161 0.411 0.244 0.858 0.244 1.335 0 1.055-0.34 1.93-1.007 2.64s-1.537 1.084-2.604 1.132v1.537h-0.9v-1.519c-0.763-0.095-1.376-0.268-1.853-0.512s-0.888-0.644-1.233-1.186c-0.345-0.548-0.548-1.216-0.602-2.002l1.531-0.286c0.119 0.816 0.328 1.418 0.626 1.799 0.429 0.542 0.941 0.84 1.537 0.906v-4.838c-0.626-0.119-1.263-0.363-1.918-0.727-0.483-0.274-0.858-0.644-1.12-1.126-0.262-0.477-0.393-1.019-0.393-1.633l-0.006-0.012zM27.203 16c0-3.092-1.251-5.893-3.283-7.919-2.026-2.026-4.826-3.283-7.919-3.283s-5.893 1.251-7.919 3.283c-2.026 2.026-3.283 4.826-3.283 7.919s1.251 5.893 3.283 7.919c2.026 2.026 4.826 3.283 7.919 3.283s5.893-1.251 7.919-3.283c2.026-2.026 3.283-4.826 3.283-7.919z"></path>
<path fill="#0b7572" d="M15.906 14.546v-4.207c-0.59 0.089-1.061 0.328-1.4 0.709s-0.512 0.834-0.512 1.364c0 0.518 0.143 0.953 0.435 1.299 0.292 0.352 0.78 0.632 1.472 0.834h0.006z"></path>
<path fill="#0b7572" d="M18.843 18.449c0-0.548-0.137-0.995-0.411-1.329s-0.822-0.638-1.639-0.9v4.63c0.59-0.071 1.079-0.328 1.466-0.769s0.578-0.983 0.578-1.633h0.006z"></path>
</svg>
