<!-- Generated by IcoMoon.io -->
<svg version="1.1" xmlns="http://www.w3.org/2000/svg" width="31" height="32" viewBox="0 0 31 32">
<title>Grouplock</title>
<path fill="#0b7572" d="M29.050 9.39h-27.127c-0.328 0-0.631 0.133-0.849 0.352s-0.352 0.516-0.352 0.849v19.374c0 0.328 0.133 0.631 0.352 0.849s0.516 0.352 0.849 0.352h27.127c0.328 0 0.631-0.133 0.843-0.352 0.218-0.218 0.352-0.516 0.352-0.849v-19.374c0-0.328-0.133-0.631-0.352-0.849s-0.516-0.352-0.843-0.352zM16.051 21.989v6.224c0 0.309-0.255 0.564-0.564 0.564s-0.564-0.255-0.564-0.564v-6.224c-0.576-0.224-0.983-0.782-0.983-1.438 0-0.855 0.691-1.547 1.547-1.547s1.547 0.692 1.547 1.547c0 0.655-0.406 1.213-0.983 1.438z"></path>
<path fill="#0b7572" d="M27.528 11.78h-24.082c0.097-3.179 1.425-6.048 3.524-8.146 2.178-2.184 5.192-3.53 8.516-3.53s6.339 1.353 8.516 3.53c2.099 2.099 3.427 4.968 3.524 8.146zM24.974 9.566c-0.443-1.638-1.31-3.142-2.535-4.361-1.85-1.85-4.331-2.881-6.952-2.881s-5.101 1.031-6.951 2.881c-1.225 1.225-2.093 2.724-2.536 4.361h18.974z"></path>
</svg>
