<!-- Generated by IcoMoon.io -->
<svg version="1.1" xmlns="http://www.w3.org/2000/svg" width="29" height="32" viewBox="0 0 29 32">
<title>icon</title>
<path fill="#0b7572" d="M23.828 20.806h-18.448c0.002-0.581-0.183-1.148-0.529-1.615s-0.833-0.81-1.39-0.978v-12.509c0.43-0.121 0.821-0.351 1.136-0.667s0.543-0.709 0.662-1.14h8.645c0.126 0.428 0.358 0.818 0.673 1.133s0.705 0.547 1.133 0.673v4.037l-1.617 1.625-0.864-0.864c-0.071-0.071-0.155-0.128-0.248-0.167s-0.192-0.059-0.293-0.059c-0.1 0-0.2 0.020-0.293 0.059s-0.177 0.095-0.248 0.167c-0.072 0.071-0.128 0.156-0.167 0.25s-0.059 0.194-0.059 0.295c0 0.101 0.020 0.201 0.059 0.295s0.096 0.178 0.167 0.25l0.864 0.864-0.864 0.864c-0.072 0.072-0.128 0.156-0.167 0.25s-0.059 0.194-0.059 0.295c0 0.101 0.020 0.201 0.059 0.295s0.096 0.178 0.167 0.25c0.071 0.071 0.155 0.128 0.248 0.167s0.192 0.059 0.293 0.059c0.1 0 0.2-0.020 0.293-0.059s0.177-0.095 0.248-0.167l0.864-0.864 1.841 1.841c0.071 0.071 0.155 0.128 0.248 0.167s0.192 0.059 0.293 0.059 0.2-0.020 0.293-0.059c0.093-0.039 0.177-0.095 0.248-0.167l1.911-1.85 0.864 0.864c0.069 0.080 0.155 0.145 0.25 0.191s0.2 0.071 0.306 0.075c0.106 0.004 0.211-0.015 0.31-0.054s0.188-0.098 0.262-0.173c0.075-0.075 0.133-0.165 0.171-0.264s0.056-0.204 0.051-0.31-0.031-0.21-0.077-0.305c-0.046-0.095-0.112-0.18-0.193-0.249l-0.864-0.864 0.864-0.864c0.072-0.072 0.128-0.156 0.167-0.25s0.059-0.194 0.059-0.295c0-0.101-0.020-0.201-0.059-0.295s-0.096-0.178-0.167-0.25c-0.071-0.071-0.155-0.128-0.248-0.167s-0.192-0.059-0.293-0.059c-0.1 0-0.2 0.020-0.293 0.059s-0.177 0.095-0.248 0.167l-0.864 0.864-1.608-1.617v-4.037c0.446-0.133 0.85-0.38 1.172-0.716s0.551-0.75 0.665-1.201c0.114-0.451 0.109-0.924-0.015-1.373s-0.362-0.858-0.691-1.187c-0.329-0.329-0.738-0.567-1.187-0.691s-0.922-0.129-1.373-0.015c-0.451 0.114-0.865 0.343-1.201 0.665s-0.583 0.726-0.716 1.172h-8.645c-0.136-0.441-0.383-0.84-0.717-1.158s-0.745-0.545-1.193-0.658c-0.447-0.113-0.917-0.109-1.362 0.011s-0.853 0.354-1.182 0.677c-0.329 0.323-0.57 0.726-0.698 1.169s-0.141 0.912-0.035 1.362c0.105 0.449 0.324 0.864 0.636 1.204s0.706 0.594 1.145 0.738v12.526c-0.557 0.168-1.044 0.511-1.39 0.978s-0.531 1.034-0.529 1.615c0 0.251 0 0.484 0 0.692-0.004 0.023-0.004 0.046 0 0.069v4.616c0.007 1.422 0.576 2.784 1.583 3.788s2.371 1.569 3.794 1.571h18.448c1.426 0 2.794-0.567 3.802-1.575s1.575-2.376 1.575-3.802-0.566-2.794-1.575-3.802c-1.008-1.008-2.376-1.575-3.802-1.575zM17.776 12.447l-1.262 1.305-1.288-1.305 1.288-1.297 1.262 1.297zM23.828 28.483c-0.457 0.002-0.905-0.132-1.286-0.385s-0.678-0.613-0.854-1.035c-0.176-0.422-0.222-0.887-0.133-1.335s0.309-0.861 0.632-1.184c0.323-0.323 0.735-0.543 1.184-0.632s0.913-0.042 1.335 0.133 0.782 0.473 1.035 0.854c0.253 0.381 0.387 0.828 0.385 1.286 0 0.61-0.242 1.195-0.674 1.626s-1.016 0.674-1.626 0.674zM3.080 26.183c-0.002-0.457 0.132-0.905 0.385-1.286s0.613-0.678 1.035-0.854 0.887-0.222 1.335-0.133c0.449 0.089 0.861 0.309 1.184 0.632s0.543 0.735 0.632 1.184c0.089 0.449 0.042 0.913-0.133 1.335s-0.473 0.782-0.854 1.035-0.828 0.387-1.286 0.385c-0.609-0.002-1.193-0.245-1.623-0.676s-0.674-1.014-0.676-1.623zM19.981 26.183c0 0.457-0.136 0.904-0.39 1.283s-0.615 0.676-1.037 0.85c-0.422 0.174-0.887 0.22-1.335 0.13s-0.859-0.31-1.182-0.634c-0.322-0.324-0.542-0.736-0.63-1.184s-0.041-0.913 0.135-1.334c0.176-0.422 0.473-0.781 0.854-1.034s0.828-0.387 1.285-0.385c0.611 0.002 1.196 0.246 1.627 0.679s0.673 1.018 0.673 1.629zM13.834 26.183c0 0.456-0.135 0.903-0.389 1.282s-0.614 0.675-1.036 0.85c-0.422 0.175-0.886 0.22-1.334 0.131s-0.859-0.309-1.182-0.632c-0.323-0.323-0.543-0.734-0.632-1.182s-0.043-0.912 0.131-1.334c0.175-0.422 0.471-0.782 0.85-1.036s0.826-0.389 1.282-0.389c0.612 0 1.199 0.243 1.632 0.676s0.676 1.020 0.676 1.632z"></path>
<path fill="#0b7572" d="M5.38 26.953c0.425 0 0.769-0.345 0.769-0.769s-0.344-0.769-0.769-0.769c-0.425 0-0.769 0.344-0.769 0.769s0.344 0.769 0.769 0.769z"></path>
<path fill="#0b7572" d="M11.526 26.953c0.425 0 0.769-0.345 0.769-0.769s-0.344-0.769-0.769-0.769c-0.425 0-0.769 0.344-0.769 0.769s0.345 0.769 0.769 0.769z"></path>
<path fill="#0b7572" d="M17.681 26.953c0.425 0 0.769-0.345 0.769-0.769s-0.345-0.769-0.769-0.769c-0.425 0-0.769 0.344-0.769 0.769s0.344 0.769 0.769 0.769z"></path>
<path fill="#0b7572" d="M23.828 26.953c0.425 0 0.769-0.345 0.769-0.769s-0.345-0.769-0.769-0.769c-0.425 0-0.769 0.344-0.769 0.769s0.344 0.769 0.769 0.769z"></path>
</svg>
