<!-- Generated by IcoMoon.io -->
<svg version="1.1" xmlns="http://www.w3.org/2000/svg" width="32" height="32" viewBox="0 0 32 32">
<title>instagram</title>
<path fill="#bfbfc7" d="M23.338 0h-14.676c-4.776 0-8.662 3.886-8.662 8.662v14.676c0 4.776 3.886 8.662 8.662 8.662h14.676c4.776 0 8.662-3.886 8.662-8.662v-14.676c0-4.776-3.886-8.662-8.662-8.662v0zM16 24.75c-4.825 0-8.75-3.925-8.75-8.75s3.925-8.75 8.75-8.75c4.825 0 8.75 3.925 8.75 8.75s-3.925 8.75-8.75 8.75zM24.959 9.314c-1.426 0-2.585-1.16-2.585-2.585s1.16-2.586 2.585-2.586c1.426 0 2.586 1.16 2.586 2.586s-1.16 2.585-2.586 2.585z"></path>
<path fill="#bfbfc7" d="M15.999 10.666c-2.941 0-5.333 2.392-5.333 5.333s2.393 5.333 5.333 5.333c2.941 0 5.333-2.393 5.333-5.333s-2.392-5.333-5.333-5.333z"></path>
<path fill="#bfbfc7" d="M24.959 6.019c-0.391 0-0.709 0.318-0.709 0.709s0.318 0.709 0.709 0.709c0.391 0 0.71-0.318 0.71-0.709s-0.318-0.709-0.71-0.709z"></path>
</svg>
