<!-- Generated by IcoMoon.io -->
<svg version="1.1" xmlns="http://www.w3.org/2000/svg" width="51" height="32" viewBox="0 0 51 32">
<title>letter</title>
<path fill="#0b7572" d="M3.746 0c-0.736 0-1.412 0.218-1.99 0.577l22.166 18.481c1.015 0.847 2.382 0.847 3.395 0l22.127-18.481c-0.578-0.359-1.254-0.577-1.99-0.577h-43.707zM0.215 2.481c-0.134 0.38-0.215 0.785-0.215 1.212v24.615c0 0.741 0.226 1.423 0.605 2l15.863-14.25-16.254-13.577zM50.985 2.481l-16.215 13.558 15.824 14.269c0.379-0.577 0.605-1.259 0.605-2v-24.615c0-0.426-0.081-0.831-0.215-1.212zM32.859 17.654l-3.941 3.288c-1.906 1.594-4.708 1.592-6.615 0l-3.922-3.269-15.746 14.154c0.352 0.108 0.723 0.173 1.112 0.173h43.707c0.389 0 0.76-0.065 1.112-0.173l-15.707-14.173z"></path>
</svg>
