<!-- Generated by IcoMoon.io -->
<svg version="1.1" xmlns="http://www.w3.org/2000/svg" width="32" height="32" viewBox="0 0 32 32">
<title>linkedin</title>
<path fill="#bfbfc7" d="M31.992 32v-0.001h0.008v-11.544c0-5.648-1.228-9.998-7.897-9.998-3.206 0-5.357 1.742-6.236 3.393h-0.093v-2.866h-6.323v21.015h6.584v-10.406c0-2.74 0.524-5.389 3.952-5.389 3.377 0 3.427 3.127 3.427 5.565v10.231h6.577z"></path>
<path fill="#bfbfc7" d="M0.525 10.984h6.592v21.015h-6.592v-21.015z"></path>
<path fill="#bfbfc7" d="M3.818 0c-2.108 0-3.818 1.693-3.818 3.78s1.71 3.815 3.818 3.815c2.108 0 3.818-1.729 3.818-3.815-0.001-2.087-1.712-3.78-3.818-3.78v0z"></path>
</svg>
