<!-- Generated by IcoMoon.io -->
<svg version="1.1" xmlns="http://www.w3.org/2000/svg" width="25" height="32" viewBox="0 0 25 32">
<title>list</title>
<path fill="#0b7572" d="M3.888 23.888h4.351c0.286 0 0.518 0.232 0.518 0.518v4.351c0 0.286-0.232 0.518-0.518 0.518h-4.351c-0.286 0-0.518-0.232-0.518-0.518v-4.351c0-0.286 0.232-0.518 0.518-0.518zM21.187 17.813h-7.976c-0.286 0-0.518-0.232-0.518-0.518s0.232-0.518 0.518-0.518h7.976c0.286 0 0.518 0.232 0.518 0.518s-0.232 0.518-0.518 0.518zM9.079 7.271l-4.070 4.070c-0.030 0.037-0.073 0.067-0.116 0.091-0.25 0.14-0.561 0.061-0.707-0.189l-1.231-2.133c-0.14-0.244-0.061-0.561 0.189-0.707 0.244-0.14 0.561-0.061 0.707 0.189l0.896 1.554 3.601-3.601c0.201-0.201 0.53-0.201 0.731 0s0.201 0.53 0 0.731v-0.006zM6.422 0.727h-5.904c-0.286 0-0.518 0.232-0.518 0.518v30.162c0 0.286 0.232 0.518 0.518 0.518h23.557c0.286 0 0.518-0.231 0.518-0.518v-30.162c0-0.286-0.232-0.518-0.518-0.518h-5.904v2.821c0 0.286-0.232 0.518-0.518 0.518h-10.712c-0.286 0-0.518-0.232-0.518-0.518v-2.821zM12.692 26.581c0-0.286 0.232-0.518 0.518-0.518h7.976c0.286 0 0.518 0.232 0.518 0.518s-0.232 0.518-0.518 0.518h-7.976c-0.286 0-0.518-0.232-0.518-0.518zM9.079 15.625l-4.070 4.070c-0.030 0.037-0.073 0.067-0.116 0.091-0.25 0.14-0.561 0.061-0.707-0.189l-1.231-2.133c-0.14-0.244-0.061-0.561 0.189-0.707 0.244-0.14 0.561-0.061 0.707 0.189l0.896 1.554 3.601-3.601c0.201-0.201 0.53-0.201 0.731 0s0.201 0.53 0 0.731v-0.006zM13.21 9.459c-0.286 0-0.518-0.232-0.518-0.518s0.232-0.518 0.518-0.518h7.976c0.286 0 0.518 0.232 0.518 0.518s-0.232 0.518-0.518 0.518h-7.976z"></path>
<path fill="#0b7572" d="M17.652 0.746h-10.712v2.803h10.712v-2.803z"></path>
</svg>
