<!-- Generated by IcoMoon.io -->
<svg version="1.1" xmlns="http://www.w3.org/2000/svg" width="57" height="32" viewBox="0 0 57 32">
<title>logo</title>
<path fill="#0b7572" d="M1.31 8.605l0.038 4.221c0.522-2.223 1.641-4.261 3.235-5.895 0.131-0.148 0.281-0.279 0.43-0.408l-3.702 2.082zM20.514 26.082c0.43 0 0.767 0.316 0.785 0.726 0 0.316-0.205 0.595-0.486 0.707l-6.62 3.886c-0.205 0.13-0.467 0.149-0.691 0.018l-6.302-3.681-0.018-0.018-6.825-3.831c-0.102-0.057-0.188-0.141-0.247-0.242s-0.090-0.217-0.089-0.334l0.056-7.308-0.074-7.734c-0.019-0.242 0.112-0.483 0.336-0.613l6.396-3.607 6.712-3.943c0.206-0.13 0.468-0.149 0.692-0.018l6.301 3.681h0.018c0.244 0.13 0.393 0.354 0.393 0.632 0 0.41-0.318 0.744-0.748 0.744-0.174 0.002-0.343-0.050-0.486-0.149-0.904-0.485-1.865-0.854-2.861-1.097-1.039-0.257-2.108-0.376-3.179-0.353-3.385 0.074-6.414 1.487-8.582 3.737-1.114 1.151-1.989 2.511-2.576 4.001s-0.875 3.081-0.846 4.683c0.031 1.6 0.379 3.179 1.025 4.644s1.574 2.787 2.734 3.891c2.349 2.241 5.487 3.463 8.732 3.403 1.070-0.020 2.133-0.182 3.161-0.483 1.020-0.301 2-0.726 2.917-1.264l0.018-0.018c0.093-0.019 0.224-0.056 0.356-0.056v-0.001zM1.366 18.739l-0.037 4.221 3.721 2.082-0.093-0.094c-1.739-1.673-3.010-3.811-3.59-6.21zM10.173 27.96l3.646 2.138 3.665-2.157-0.132 0.038c-1.066 0.316-2.187 0.483-3.309 0.502-1.31 0.035-2.617-0.141-3.871-0.52zM17.447 3.548l-3.665-2.139-3.665 2.157c1.113-0.322 2.263-0.504 3.422-0.539 1.121-0.016 2.239 0.109 3.329 0.372 0.206 0.055 0.392 0.092 0.58 0.149v0.001z"></path>
<path fill="#0b7572" d="M17.485 9.107c0.317 0.167 0.43 0.576 0.261 0.892s-0.579 0.428-0.898 0.261c-0.483-0.264-0.999-0.464-1.533-0.595-0.533-0.127-1.079-0.189-1.627-0.186-1.666 0.031-3.253 0.719-4.413 1.915-1.121 1.152-1.776 2.733-1.758 4.462 0.016 0.822 0.195 1.633 0.525 2.386s0.807 1.433 1.401 2.002c0.595 0.573 1.299 1.023 2.069 1.323s1.592 0.444 2.419 0.425c0.374 0 0.673 0.279 0.673 0.651s-0.28 0.67-0.655 0.67c-2.023 0.040-3.979-0.722-5.441-2.12-0.723-0.687-1.302-1.511-1.703-2.424s-0.617-1.896-0.635-2.893c-0.019-0.998 0.159-1.99 0.525-2.919s0.912-1.776 1.607-2.492c0.694-0.72 1.524-1.297 2.442-1.696s1.905-0.613 2.905-0.629c0.668-0.019 1.335 0.057 1.982 0.224 0.636 0.186 1.272 0.427 1.852 0.743z"></path>
<path fill="#0b7572" d="M8.678 8.512c0.13-0.092 0.299-0.055 0.393 0.074s0.056 0.298-0.075 0.391c-1.116 0.776-2.022 1.818-2.636 3.031-0.608 1.211-0.916 2.55-0.898 3.905 0.038 2.286 1.029 4.35 2.562 5.819l0.018 0.018c0.787 0.755 1.717 1.345 2.734 1.738s2.103 0.579 3.193 0.549c0.728-0.017 1.451-0.13 2.151-0.335 0.691-0.204 1.365-0.483 2.001-0.874 0.131-0.074 0.318-0.038 0.392 0.092s0.038 0.316-0.094 0.391c-0.668 0.4-1.384 0.713-2.132 0.93-0.747 0.223-1.515 0.335-2.3 0.353-2.355 0.053-4.634-0.829-6.339-2.454l-0.018-0.018c-0.847-0.8-1.525-1.762-1.994-2.828s-0.719-2.216-0.736-3.381c-0.038-1.469 0.318-2.901 0.954-4.184 0.678-1.277 1.645-2.379 2.824-3.217z"></path>
<path fill="#0b7572" d="M11.203 16.043c-0.018 0-0.038-0.13-0.038-0.279s0.019-0.279 0.038-0.279h2.318v-2.566c0-0.018 0.132-0.037 0.281-0.037s0.281 0.018 0.281 0.037v2.566h2.318c0.020 0 0.038 0.13 0.038 0.279s-0.019 0.279-0.038 0.279h-2.319v2.566c0 0.018-0.131 0.038-0.281 0.038s-0.28-0.019-0.28-0.038v-2.566h-2.319zM31.863 9.664h-8.502c-0.323 0-0.516 0.106-0.516 0.51v10.54c0 0.404 0.194 0.51 0.516 0.51h1.76c0.344 0 0.515-0.106 0.515-0.51v-8.585h3.95v8.585c0 0.404 0.193 0.51 0.515 0.51h1.761c0.322 0 0.515-0.106 0.515-0.51v-10.54c0-0.404-0.193-0.51-0.515-0.51zM43.156 22.137c0 0.404 0.193 0.51 0.516 0.51h1.459c0.323 0 0.516-0.106 0.516-0.51v-3.017c0-0.319-0.107-0.51-0.516-0.51h-0.858v-8.436c0-0.404-0.193-0.51-0.515-0.51h-6.806c-0.322 0-0.515 0.106-0.515 0.51l-0.558 7.267c-0.043 0.659-0.215 1.169-1.181 1.169-0.408 0-0.515 0.191-0.515 0.51v3.017c0 0.404 0.193 0.51 0.515 0.51h1.482c0.322 0 0.515-0.106 0.515-0.51v-1.105h6.484v1.105h-0.022zM38.605 17.589l0.45-5.546h2.533v6.694h-3.692c0.429-0.149 0.665-0.51 0.709-1.148zM55.801 15.23c0.15-0.063 1.288-0.637 1.288-2.401 0-1.636-1.245-3.166-4.122-3.166h-4.959c-0.408 0-0.515 0.191-0.515 0.51v10.54c0 0.319 0.107 0.51 0.515 0.51h5.217c2.469 0 4.23-1.147 4.23-3.378 0.009-0.549-0.142-1.090-0.436-1.554s-0.717-0.833-1.217-1.060h-0.001zM53.246 18.715h-2.983v-6.587h2.705c0.923 0 1.482 0.191 1.482 0.978 0 0.68-0.451 1.040-1.482 1.040h-0.236c-0.408 0-0.515 0.192-0.515 0.51v1.339c0 0.319 0.107 0.51 0.515 0.51h0.408c0.859 0 1.482 0.255 1.482 1.062s-0.494 1.148-1.374 1.148l-0.001-0.001z"></path>
</svg>
