<!-- Generated by IcoMoon.io -->
<svg version="1.1" xmlns="http://www.w3.org/2000/svg" width="23" height="32" viewBox="0 0 23 32">
<title>phone</title>
<path fill="#0b7572" d="M10.988 6.699l-3.36-5.827c-0.855-1.482-2.335-0.626-2.335-0.626l-2.072 1.198 5.069 8.791 2.072-1.198c1.48-0.855 0.626-2.337 0.626-2.337zM19.599 31.537l-5.069-8.791c-1.252 0.723-2.399-0.613-3.455-2.046-0.696-0.953-1.33-1.944-1.895-2.92-0.562-0.978-1.101-2.023-1.578-3.104-0.712-1.631-1.249-3.322-0.043-4.019l-5.069-8.791c-1.786 1.033-5.34 6.531 1.725 18.783l0 0.001c7.086 12.289 13.598 11.92 15.383 10.887zM23.027 27.579l-3.36-5.827c-0.855-1.482-2.335-0.626-2.335-0.626l-2.073 1.198 5.069 8.791 2.072-1.198c1.48-0.856 0.626-2.338 0.626-2.338z"></path>
</svg>
