<!-- Generated by IcoMoon.io -->
<svg version="1.1" xmlns="http://www.w3.org/2000/svg" width="32" height="32" viewBox="0 0 32 32">
<title>phone-2</title>
<path fill="#0b7572" d="M16 0c-8.844 0-16 7.152-16 16 0 3.337 1.018 6.423 2.825 9.075 0.067 0.1 0.111 0.213 0.129 0.332s0.008 0.241-0.029 0.355l-1.625 5.438 5.325-1.837c0.114-0.038 0.235-0.050 0.354-0.035s0.233 0.057 0.334 0.122c2.494 1.618 5.48 2.55 8.688 2.55 8.848 0 16-7.152 16-16s-7.152-16-16-16zM9.45 6.975l2.912 4.813-1.213 1.2c-0.123 0.125-0.203 0.286-0.225 0.46s0.013 0.35 0.1 0.502c1.85 3.204 4.043 5.697 7.113 7.050 0.147 0.065 0.311 0.085 0.469 0.056s0.304-0.105 0.419-0.218l1.288-1.288 4.7 2.938c-0.52 1.171-1.199 1.869-1.975 2.275-0.899 0.471-1.997 0.56-3.25 0.3-2.506-0.52-5.533-2.489-8-5.012s-4.376-5.591-4.862-8.088c-0.243-1.248-0.136-2.323 0.325-3.175 0.397-0.734 1.071-1.362 2.2-1.813z"></path>
</svg>
