<!-- Generated by IcoMoon.io -->
<svg version="1.1" xmlns="http://www.w3.org/2000/svg" width="29" height="32" viewBox="0 0 29 32">
<title>planet</title>
<path fill="#0b7572" d="M3.381 9.558c-1.699 2.303-2.702 5.15-2.702 8.233s1.003 5.93 2.702 8.233c1.541-0.568 3.258-1.022 5.102-1.336 0.218-0.036 0.435-0.073 0.653-0.103-0.423-2.031-0.659-4.34-0.659-6.788 0-1.13 0.048-2.23 0.145-3.288l-0.465 0.756-3.3-5.204c-0.508-0.151-1.003-0.32-1.475-0.496v-0.006z"></path>
<path fill="#0b7572" d="M8.633 25.589c-1.674 0.284-3.24 0.689-4.648 1.191 0.363 0.429 0.75 0.834 1.167 1.209 1.922 1.771 4.34 3.004 7.024 3.464-0.774-0.78-1.463-1.928-2.025-3.367-0.308-0.786-0.58-1.662-0.816-2.611-0.236 0.036-0.472 0.073-0.701 0.115z"></path>
<path fill="#0b7572" d="M10.259 25.354c0.218 0.87 0.471 1.674 0.756 2.4 0.943 2.412 2.194 3.905 3.536 3.905s2.593-1.493 3.536-3.905c0.284-0.725 0.538-1.529 0.756-2.4-1.372-0.163-2.811-0.254-4.286-0.254-1.481 0-2.914 0.085-4.286 0.254h-0.012z"></path>
<path fill="#0b7572" d="M9.401 17.786c0 2.412 0.236 4.685 0.653 6.661 1.445-0.175 2.95-0.272 4.497-0.272s3.053 0.097 4.497 0.272c0.417-1.983 0.653-4.25 0.653-6.661s-0.236-4.685-0.653-6.661c-1.445 0.175-2.95 0.272-4.497 0.272-1.336 0-2.642-0.073-3.899-0.205l-0.562 0.913-0.308 0.502c-0.248 1.602-0.381 3.349-0.381 5.186v-0.006z"></path>
<path fill="#0b7572" d="M11.184 10.32c1.088 0.103 2.212 0.151 3.361 0.151 1.481 0 2.914-0.085 4.286-0.254-0.218-0.87-0.472-1.674-0.756-2.4-0.943-2.412-2.194-3.905-3.536-3.905-0.399 0-0.792 0.133-1.173 0.387 0.018 0.115 0.030 0.236 0.036 0.357 0 0.006 0 0.018 0 0.024 0 0.012 0 0.030 0.006 0.042 0.006 0.060 0.012 0.121 0.012 0.181 0 0.006 0 0.006 0 0.018 0 0.073 0 0.139 0 0.212 0 1.064-0.441 2.237-0.997 3.137l-1.251 2.043 0.012 0.006z"></path>
<path fill="#0b7572" d="M18.939 7.485c0.308 0.786 0.58 1.662 0.816 2.611 0.236-0.036 0.472-0.073 0.701-0.115 1.674-0.284 3.24-0.689 4.648-1.191-0.363-0.429-0.756-0.834-1.167-1.215-1.916-1.765-4.34-2.998-7.018-3.464 0.774 0.78 1.463 1.928 2.025 3.367l-0.006 0.006z"></path>
<path fill="#0b7572" d="M19.955 10.997c0.423 2.031 0.659 4.34 0.659 6.788s-0.236 4.757-0.659 6.788c0.218 0.030 0.435 0.067 0.653 0.103 1.844 0.314 3.56 0.768 5.102 1.336 1.699-2.303 2.702-5.15 2.702-8.233s-1.003-5.93-2.702-8.233c-1.541 0.568-3.258 1.022-5.102 1.336-0.218 0.036-0.435 0.073-0.653 0.103v0.012z"></path>
<path fill="#0b7572" d="M19.756 25.48c-0.23 0.949-0.508 1.826-0.816 2.611-0.562 1.433-1.245 2.587-2.025 3.367 2.684-0.465 5.102-1.692 7.018-3.464 0.411-0.381 0.804-0.786 1.167-1.215-1.408-0.502-2.974-0.901-4.648-1.191-0.23-0.042-0.465-0.079-0.701-0.115l0.006 0.006z"></path>
<path fill="#0b7572" d="M9.546 5.835c-0.375 0.375-0.895 0.611-1.469 0.611s-1.094-0.23-1.469-0.611c-0.375-0.375-0.611-0.895-0.611-1.469s0.23-1.094 0.611-1.469c0.375-0.375 0.895-0.611 1.469-0.611s1.094 0.23 1.469 0.611c0.375 0.375 0.61 0.895 0.61 1.469s-0.23 1.094-0.61 1.469zM9.341 11.565c-0.012 0.018-0.024 0.036-0.036 0.054l0.036-0.054zM12.496 4.741c0 0.006 0 0.012 0 0.012 0-0.006 0-0.012 0-0.012zM4.952 2.009c-0.804 0.804-1.3 1.91-1.3 3.131 0 0.744 0.405 1.777 0.997 2.895 0.006 0.006 0.012 0.012 0.024 0.018 0.030 0.030 0.060 0.066 0.079 0.103l0.399 0.629c0.006 0.006 0.006 0.012 0.012 0.018l2.992 4.715 0.641-1.040c0.012-0.018 0.024-0.042 0.036-0.060l0.484-0.786 0.036-0.060 2.315-3.772c0.514-1.034 0.858-1.971 0.858-2.654 0-0.079 0-0.133 0-0.175 0-0.006 0-0.012 0-0.012 0-0.036-0.006-0.085-0.012-0.145 0-0.012 0-0.024-0.006-0.042 0-0.006 0-0.012 0-0.012-0.097-1.064-0.568-2.019-1.281-2.732-0.804-0.804-1.91-1.3-3.131-1.3s-2.327 0.496-3.131 1.3l-0.012-0.018z"></path>
</svg>
