<!-- Generated by IcoMoon.io -->
<svg version="1.1" xmlns="http://www.w3.org/2000/svg" width="32" height="32" viewBox="0 0 32 32">
<title>skype</title>
<path fill="#0b7572" d="M30.867 18.671c-0.010 0.056-0.028-0.051 0 0 0.165-0.901 0.252-1.824 0.252-2.746 0-2.045-0.399-4.028-1.188-5.896-0.761-1.804-1.85-3.424-3.239-4.814-1.386-1.391-3.003-2.483-4.802-3.246-1.862-0.79-3.841-1.19-5.881-1.19-0.961 0-1.924 0.090-2.861 0.271-0.002 0-0.007 0.001-0.007 0.001-1.286-0.685-2.731-1.051-4.195-1.051-2.389 0-4.636 0.933-6.325 2.627s-2.62 3.946-2.62 6.341c0 1.525 0.391 3.023 1.125 4.347-0.149 0.858-0.228 1.735-0.228 2.611 0 2.045 0.399 4.029 1.188 5.896 0.76 1.805 1.85 3.423 3.237 4.814 1.388 1.391 3.003 2.484 4.804 3.245 1.863 0.792 3.842 1.192 5.882 1.192 0.888 0 1.778-0.081 2.646-0.236 1.338 0.759 2.854 1.162 4.401 1.162 2.389 0 4.634-0.931 6.324-2.626 1.69-1.692 2.62-3.945 2.62-6.34 0-1.53-0.393-3.033-1.133-4.363zM16.069 25.202c-5.368 0-7.77-2.646-7.77-4.628 0-1.017 0.749-1.73 1.781-1.73 2.297 0 1.703 3.307 5.989 3.307 2.194 0 3.406-1.194 3.406-2.416 0-0.735-0.362-1.55-1.807-1.907l-4.775-1.195c-3.846-0.967-4.543-3.050-4.543-5.009 0-4.067 3.82-5.594 7.407-5.594 3.305 0 7.2 1.831 7.2 4.271 0 1.046-0.903 1.653-1.935 1.653-1.96 0-1.6-2.72-5.549-2.72-1.96 0-3.045 0.89-3.045 2.162 0 1.271 1.548 1.677 2.892 1.983l3.534 0.787c3.871 0.865 4.853 3.13 4.853 5.264 0 3.305-2.53 5.773-7.638 5.773z"></path>
</svg>
