<svg aria-hidden="true" style="position: absolute; width: 0; height: 0; overflow: hidden;" version="1.1"
  xmlns="http://www.w3.org/2000/svg" xmlns:xlink="http://www.w3.org/1999/xlink">
  <defs>
    <symbol id="whatsapp" viewBox="0 0 32 32">
      <path fill="#0b7572" style="fill: var(--color1, #0b7572)"
        d="M16 0c-8.844 0-16 7.152-16 16 0 3.337 1.018 6.423 2.825 9.075 0.086 0.126 0.137 0.281 0.137 0.448 0 0.086-0.014 0.169-0.039 0.246l0.002-0.006-1.625 5.437 5.325-1.837c0.076-0.026 0.163-0.041 0.254-0.041 0.161 0 0.312 0.048 0.438 0.13l-0.003-0.002c2.439 1.599 5.427 2.55 8.638 2.55 0.017 0 0.035-0 0.052-0h-0.003c8.848 0 16-7.152 16-16s-7.152-16-16-16zM9.45 6.975l2.913 4.813-1.213 1.2c-0.143 0.145-0.232 0.343-0.232 0.563 0 0.147 0.040 0.284 0.109 0.403l-0.002-0.004c1.85 3.204 4.043 5.697 7.112 7.050 0.096 0.044 0.207 0.069 0.325 0.069 0.22 0 0.419-0.089 0.563-0.232l1.288-1.287 4.7 2.938c-0.52 1.17-1.2 1.868-1.976 2.274-0.898 0.471-1.996 0.56-3.25 0.3-2.505-0.52-5.533-2.489-8-5.012s-4.375-5.591-4.862-8.088c-0.243-1.248-0.136-2.322 0.325-3.174 0.397-0.734 1.070-1.362 2.2-1.813z">
      </path>
    </symbol>
    <symbol id="vk" viewBox="0 0 55 32">
      <path fill="#bfbfc7" style="fill: var(--color2, #bfbfc7)"
        d="M45.299 18.349c-0.885-1.12-0.631-1.619 0-2.618 0.011-0.011 7.296-10.127 8.047-13.559l0.004-0.004c0.375-1.25 0-2.168-1.803-2.168h-5.967c-1.521 0-2.221 0.789-2.598 1.672 0 0-3.038 7.309-7.337 12.047-1.387 1.368-2.027 1.807-2.786 1.807-0.373 0-0.952-0.437-0.952-1.688v-11.669c0-1.498-0.425-2.168-1.683-2.168h-9.385c-0.952 0-1.519 0.7-1.519 1.352 0 1.421 2.15 1.749 2.372 5.749v8.678c0 1.901-0.343 2.251-1.105 2.251-2.029 0-6.953-7.339-9.873-15.738-0.589-1.632-1.163-2.291-2.694-2.291h-5.971c-1.705 0.002-2.048 0.792-2.048 1.675 0 1.559 2.029 9.31 9.434 19.55 4.937 6.987 11.887 10.775 18.212 10.775 3.8 0 4.264-0.841 4.264-2.289 0-6.679-0.343-7.309 1.562-7.309 0.881 0 2.4 0.439 5.948 3.81 4.056 4 4.723 5.788 6.993 5.788h5.967c1.702 0 2.564-0.841 2.071-2.5-1.137-3.492-8.806-10.671-9.152-11.151z">
      </path>
    </symbol>
    <symbol id="to-do-list" viewBox="0 0 25 32">
      <path fill="#0b7572" style="fill: var(--color1, #0b7572)"
        d="M3.888 23.887h4.351c0.286 0 0.518 0.233 0.518 0.519v4.35c0 0.286-0.232 0.518-0.518 0.518h-4.351c-0.286 0-0.518-0.232-0.518-0.518v0-4.349c0-0.287 0.232-0.519 0.518-0.519zM21.187 17.813h-7.977c-0.286 0-0.518-0.232-0.518-0.518s0.232-0.518 0.518-0.518v0h7.977c0.286 0 0.518 0.232 0.518 0.518s-0.232 0.518-0.518 0.518v0zM9.079 7.272l-4.071 4.070c-0.094 0.099-0.227 0.16-0.375 0.16-0.19 0-0.356-0.102-0.446-0.255l-0.001-0.002-1.232-2.133c-0.043-0.074-0.068-0.163-0.068-0.257 0-0.19 0.102-0.357 0.255-0.447l0.002-0.001c0.074-0.044 0.164-0.069 0.259-0.069 0.19 0 0.357 0.102 0.447 0.255l0.001 0.002 0.895 1.554 3.601-3.602c0.094-0.093 0.223-0.151 0.366-0.151s0.272 0.058 0.366 0.151l-0-0c0.093 0.094 0.151 0.223 0.151 0.366s-0.058 0.272-0.151 0.366l0-0v-0.006zM6.422 0.727h-5.904c-0.286 0-0.518 0.232-0.518 0.518v30.163c0 0.286 0.232 0.518 0.518 0.518h23.557c0.286 0 0.518-0.232 0.518-0.518v0-30.163c0-0.286-0.232-0.518-0.518-0.518v0h-5.904v2.822c-0.001 0.286-0.232 0.517-0.518 0.517 0 0 0 0 0 0h-10.712c-0.286 0-0.518-0.232-0.518-0.518v0-2.821zM12.692 26.581c0-0.286 0.232-0.518 0.518-0.518h7.977c0.286 0 0.518 0.232 0.518 0.518s-0.232 0.518-0.518 0.518h-7.977c-0.286 0-0.518-0.232-0.518-0.518v0zM9.079 15.626l-4.071 4.069c-0.094 0.099-0.227 0.16-0.375 0.16-0.19 0-0.356-0.102-0.446-0.255l-0.001-0.002-1.232-2.133c-0.043-0.074-0.069-0.163-0.069-0.258 0-0.19 0.102-0.357 0.255-0.448l0.002-0.001c0.074-0.043 0.164-0.069 0.259-0.069 0.191 0 0.357 0.103 0.448 0.256l0.001 0.002 0.895 1.554 3.601-3.601c0.094-0.093 0.223-0.151 0.366-0.151s0.272 0.058 0.366 0.151l-0-0c0.093 0.094 0.151 0.223 0.151 0.366s-0.058 0.272-0.151 0.366l0-0v-0.006zM13.21 9.458c-0.286 0-0.518-0.232-0.518-0.518s0.232-0.518 0.518-0.518h7.977c0.286 0 0.518 0.232 0.518 0.518s-0.232 0.518-0.518 0.518h-7.977z">
      </path>
      <path fill="#0b7572" style="fill: var(--color1, #0b7572)" d="M17.652 0.746h-10.712v2.802h10.712v-2.801z"></path>
    </symbol>
    <symbol id="star" viewBox="0 0 32 32">
      <path fill="#ffce50" style="fill: var(--color3, #ffce50)"
        d="M16 0l-4.951 10.545-11.049 1.687 8 8.177-1.905 11.59 9.905-5.455 9.905 5.455-1.905-11.59 8-8.18-11.049-1.684-4.951-10.545z">
      </path>
    </symbol>
    <symbol id="skype" viewBox="0 0 32 32">
      <path fill="#0b7572" style="fill: var(--color1, #0b7572)"
        d="M30.867 18.671c-0.010 0.057-0.027-0.050 0 0 0.159-0.825 0.251-1.774 0.252-2.744v-0.001c0-2.045-0.4-4.029-1.188-5.896-0.8-1.872-1.893-3.47-3.239-4.815l-0-0c-2.726-2.74-6.498-4.435-10.667-4.435-0.006 0-0.011 0-0.017 0h0.001c-0.961 0-1.924 0.090-2.861 0.271l-0.007 0.001c-1.214-0.661-2.659-1.050-4.194-1.052h-0.001c-2.39 0-4.636 0.933-6.326 2.627-1.619 1.615-2.62 3.848-2.62 6.315 0 0.009 0 0.018 0 0.027v-0.001c0 1.525 0.391 3.024 1.125 4.348-0.143 0.784-0.226 1.687-0.227 2.609v0.001c0 2.046 0.4 4.029 1.188 5.897 0.799 1.871 1.892 3.469 3.237 4.814l0 0c1.341 1.349 2.936 2.443 4.707 3.208l0.098 0.037c1.726 0.754 3.737 1.192 5.851 1.192 0.011 0 0.022 0 0.033-0h-0.002c0.888 0 1.777-0.080 2.646-0.235 1.265 0.731 2.783 1.162 4.401 1.162h0c0.007 0 0.016 0 0.024 0 2.463 0 4.692-1.004 6.299-2.625l0.001-0.001c1.619-1.614 2.62-3.846 2.62-6.313 0-0.010 0-0.019-0-0.029v0.002c0-1.53-0.393-3.033-1.133-4.363zM16.070 25.202c-5.368 0-7.77-2.646-7.77-4.628 0-1.017 0.75-1.73 1.782-1.73 2.297 0 1.702 3.306 5.988 3.306 2.195 0 3.406-1.194 3.406-2.416 0-0.735-0.362-1.55-1.807-1.907l-4.774-1.195c-3.846-0.966-4.543-3.050-4.543-5.010 0-4.066 3.82-5.593 7.407-5.593 3.305 0 7.2 1.83 7.2 4.27 0 1.046-0.903 1.654-1.935 1.654-1.96 0-1.6-2.72-5.549-2.72-1.96 0-3.045 0.89-3.045 2.162 0 1.27 1.548 1.677 2.891 1.984l3.535 0.786c3.871 0.865 4.852 3.13 4.852 5.264 0 3.305-2.53 5.773-7.638 5.773z">
      </path>
    </symbol>
    <symbol id="producer" viewBox="0 0 29 32">
      <path fill="#0b7572" style="fill: var(--color1, #0b7572)"
        d="M23.828 20.806h-18.448c0-0.003 0-0.007 0-0.011 0-1.212-0.8-2.238-1.901-2.578l-0.019-0.005v-12.508c0.876-0.252 1.551-0.929 1.794-1.788l0.004-0.018h8.644c0.263 0.871 0.935 1.544 1.787 1.801l0.019 0.005v4.037l-1.617 1.625-0.864-0.864c-0.138-0.14-0.329-0.226-0.54-0.226s-0.403 0.086-0.54 0.226l-0 0c-0.14 0.139-0.226 0.332-0.226 0.544s0.086 0.405 0.226 0.544l0.864 0.865-0.864 0.864c-0.139 0.139-0.225 0.332-0.225 0.544 0 0.423 0.342 0.767 0.764 0.771h0c0 0 0 0 0 0 0.211 0 0.402-0.086 0.54-0.225l0.864-0.865 1.842 1.842c0.138 0.139 0.329 0.225 0.54 0.225s0.402-0.086 0.54-0.225l0-0 1.911-1.85 0.864 0.864c0.142 0.159 0.347 0.259 0.576 0.259 0.425 0 0.769-0.344 0.769-0.769 0-0.231-0.102-0.438-0.262-0.578l-0.001-0.001-0.865-0.865 0.865-0.864c0.14-0.139 0.226-0.332 0.226-0.545 0-0.425-0.344-0.769-0.769-0.769-0.105 0-0.205 0.021-0.296 0.059l0.005-0.002c-0.096 0.041-0.179 0.097-0.248 0.167l-0.864 0.865-1.608-1.617v-4.038c1.12-0.341 1.921-1.366 1.921-2.577 0-1.485-1.204-2.689-2.689-2.689-1.211 0-2.235 0.8-2.572 1.901l-0.005 0.019h-8.645c-0.349-1.109-1.367-1.899-2.57-1.899-1.485 0-2.689 1.204-2.689 2.689 0 1.186 0.768 2.193 1.834 2.55l0.019 0.005v12.526c-1.12 0.345-1.919 1.37-1.919 2.583 0 0.004 0 0.008 0 0.012v-0.001 0.691c-0.002 0.010-0.003 0.022-0.003 0.035s0.001 0.024 0.003 0.036l-0-0.001v4.616c0.014 2.961 2.416 5.356 5.377 5.36h18.448c2.929-0.053 5.283-2.44 5.283-5.377s-2.354-5.323-5.277-5.377l-0.005-0zM17.777 12.446l-1.263 1.305-1.288-1.305 1.288-1.297 1.262 1.297zM23.828 28.483c-0.003 0-0.006 0-0.009 0-1.275 0-2.308-1.033-2.308-2.308s1.033-2.308 2.308-2.308c1.275 0 2.308 1.033 2.308 2.308 0 0.003 0 0.006-0 0.010v-0c0 1.27-1.029 2.299-2.299 2.299v0zM3.080 26.184c0-0.003 0-0.005 0-0.008 0-1.275 1.034-2.309 2.309-2.309 1.272 0 2.304 1.029 2.309 2.3v0c0 0.003 0 0.005 0 0.008 0 1.275-1.034 2.309-2.309 2.309-1.272 0-2.304-1.029-2.309-2.3v-0zM19.981 26.184c0 1.275-1.034 2.309-2.309 2.309s-2.309-1.034-2.309-2.309v0c0-1.275 1.033-2.308 2.308-2.308s2.308 1.033 2.308 2.308v0zM13.834 26.184c0 1.275-1.033 2.308-2.308 2.308s-2.308-1.033-2.308-2.308v0c0-1.275 1.033-2.308 2.308-2.308s2.308 1.033 2.308 2.308v0z">
      </path>
      <path fill="#0b7572" style="fill: var(--color1, #0b7572)"
        d="M5.379 26.953c0.008 0 0.016 0 0.025 0 0.425 0 0.77-0.345 0.77-0.77s-0.345-0.77-0.77-0.77c-0.009 0-0.018 0-0.027 0l0.001-0c-0.414 0.014-0.744 0.353-0.744 0.769s0.33 0.755 0.743 0.769l0.001 0zM11.527 26.953c0.008 0 0.017 0 0.025 0 0.425 0 0.77-0.345 0.77-0.77s-0.345-0.77-0.77-0.77c-0.009 0-0.018 0-0.027 0l0.001-0c-0.414 0.014-0.744 0.353-0.744 0.769s0.33 0.755 0.743 0.769l0.001 0zM17.681 26.953c0.008 0 0.017 0 0.025 0 0.425 0 0.77-0.345 0.77-0.77s-0.345-0.77-0.77-0.77c-0.009 0-0.018 0-0.027 0l0.001-0c-0.414 0.014-0.744 0.353-0.744 0.769s0.33 0.755 0.743 0.769l0.001 0zM23.827 26.953c0.008 0 0.017 0 0.025 0 0.425 0 0.77-0.345 0.77-0.77s-0.345-0.77-0.77-0.77c-0.009 0-0.018 0-0.027 0l0.001-0c-0.414 0.014-0.744 0.353-0.744 0.769s0.33 0.755 0.743 0.769l0.001 0z">
      </path>
    </symbol>
    <symbol id="planet" viewBox="0 0 29 32">
      <path fill="#0b7572" style="fill: var(--color1, #0b7572)"
        d="M3.38 9.558c-1.687 2.265-2.702 5.118-2.702 8.209 0 0.009 0 0.017 0 0.026v-0.001c0 3.084 1.003 5.931 2.702 8.233 1.542-0.567 3.258-1.021 5.102-1.335 0.218-0.036 0.436-0.073 0.654-0.103-0.424-2.032-0.659-4.34-0.659-6.788 0-1.131 0.049-2.23 0.145-3.288l-0.465 0.755-3.301-5.204c-0.663-0.197-1.153-0.366-1.635-0.55l0.161 0.054v-0.006zM8.633 25.589c-1.775 0.298-3.339 0.712-4.842 1.251l0.194-0.061c0.363 0.43 0.75 0.834 1.167 1.209 1.89 1.75 4.284 2.981 6.941 3.452l0.083 0.012c-0.774-0.781-1.464-1.929-2.026-3.368-0.283-0.701-0.562-1.572-0.785-2.466l-0.031-0.146c-0.236 0.037-0.472 0.073-0.701 0.115zM10.259 25.354c0.218 0.871 0.471 1.675 0.756 2.4 0.943 2.412 2.193 3.905 3.535 3.905s2.593-1.493 3.537-3.905c0.284-0.725 0.537-1.529 0.755-2.4-1.287-0.161-2.776-0.253-4.286-0.253s-2.999 0.092-4.462 0.271l0.175-0.017h-0.012zM9.401 17.785c0 2.413 0.236 4.685 0.653 6.662 1.35-0.173 2.912-0.272 4.497-0.272s3.147 0.099 4.68 0.29l-0.183-0.019c0.417-1.983 0.653-4.249 0.653-6.662s-0.236-4.684-0.653-6.662c-1.351 0.173-2.913 0.272-4.498 0.272-1.373 0-2.729-0.074-4.063-0.218l0.165 0.014-0.562 0.912-0.307 0.502c-0.243 1.528-0.381 3.291-0.381 5.086 0 0.036 0 0.071 0 0.107v-0.012zM11.184 10.32c1.088 0.103 2.212 0.151 3.361 0.151 1.481 0 2.913-0.085 4.286-0.254-0.237-0.957-0.496-1.758-0.803-2.534l0.047 0.134c-0.943-2.412-2.194-3.905-3.537-3.905-0.399 0-0.791 0.133-1.172 0.388 0.018 0.114 0.030 0.235 0.036 0.356v0.024c0 0.012 0 0.030 0.007 0.042 0.006 0.061 0.012 0.121 0.012 0.181v0.23c0 1.064-0.441 2.237-0.997 3.138l-1.251 2.043 0.012 0.006zM18.939 7.486c0.308 0.785 0.58 1.661 0.816 2.61 0.237-0.036 0.472-0.073 0.702-0.114 1.775-0.298 3.338-0.712 4.841-1.251l-0.194 0.061c-2.053-2.404-4.884-4.089-8.1-4.666l-0.084-0.013c0.774 0.78 1.462 1.928 2.025 3.367l-0.006 0.006zM19.955 10.997c0.423 2.031 0.659 4.34 0.659 6.788 0 2.448-0.237 4.757-0.659 6.788 0.217 0.031 0.435 0.068 0.653 0.104 1.843 0.314 3.561 0.767 5.102 1.335 1.688-2.265 2.703-5.119 2.703-8.21 0-0.008 0-0.016-0-0.024v0.001c0-3.083-1.004-5.93-2.703-8.233-1.542 0.568-3.258 1.021-5.101 1.336-0.218 0.036-0.436 0.072-0.654 0.103v0.012zM19.757 25.481c-0.249 1.033-0.529 1.904-0.864 2.748l0.048-0.136c-0.562 1.432-1.245 2.587-2.025 3.367 2.738-0.484 5.13-1.715 7.027-3.472l-0.009 0.008c0.411-0.381 0.805-0.785 1.167-1.215-1.408-0.501-2.974-0.901-4.648-1.191-0.23-0.043-0.465-0.079-0.701-0.115l0.006 0.007zM9.547 5.835c-0.376 0.377-0.895 0.61-1.469 0.61s-1.093-0.233-1.469-0.609l-0-0c-0.377-0.376-0.61-0.895-0.61-1.469s0.233-1.093 0.609-1.469l0-0c0.376-0.377 0.895-0.61 1.469-0.61s1.093 0.233 1.469 0.61l0 0c0.377 0.376 0.61 0.895 0.61 1.469s-0.233 1.093-0.61 1.469l-0 0zM9.341 11.566v0zM12.496 4.741v0zM4.952 2.009c-0.804 0.804-1.299 1.91-1.299 3.131 0 0.743 0.404 1.777 0.997 2.895 0.007 0.008 0.015 0.014 0.024 0.019l0 0c0.031 0.029 0.057 0.063 0.077 0.1l0.001 0.002 0.399 0.628c0.006 0.007 0.006 0.013 0.012 0.019l2.993 4.714 0.64-1.040c0.013-0.017 0.025-0.042 0.037-0.060l0.484-0.785 0.036-0.061 2.316-3.772c0.514-1.034 0.858-1.97 0.858-2.653v-0.187c0-0.037-0.006-0.085-0.013-0.145 0-0.013 0-0.024-0.006-0.043v-0.012c-0.1-1.075-0.571-2.024-1.281-2.733l-0-0c-0.799-0.803-1.905-1.299-3.127-1.299-0.002 0-0.003 0-0.005 0h0c-1.221 0-2.327 0.496-3.13 1.299l-0.013-0.017z">
      </path>
    </symbol>
    <symbol id="phone" viewBox="0 0 23 32">
      <path fill="#0b7572" style="fill: var(--color1, #0b7572)"
        d="M10.988 6.7l-3.36-5.828c-0.853-1.482-2.335-0.626-2.335-0.626l-2.072 1.2 5.070 8.791 2.072-1.199c1.48-0.855 0.625-2.337 0.625-2.337zM19.599 31.537l-5.069-8.791c-1.251 0.722-2.399-0.613-3.455-2.046-1.281-1.742-2.441-3.721-3.389-5.816l-0.084-0.207c-0.712-1.631-1.249-3.321-0.043-4.018l-5.070-8.791c-1.786 1.034-5.339 6.532 1.726 18.783v0.001c7.086 12.289 13.597 11.919 15.383 10.887zM23.027 27.579l-3.36-5.828c-0.854-1.482-2.335-0.625-2.335-0.625l-2.072 1.198 5.070 8.791 2.072-1.198c1.48-0.856 0.625-2.339 0.625-2.339z">
      </path>
    </symbol>
    <symbol id="logo" viewBox="0 0 57 32">
      <path fill="#0b7572" style="fill: var(--color1, #0b7572)"
        d="M1.311 8.605l0.037 4.221c0.556-2.314 1.688-4.31 3.237-5.898l-0.002 0.003c0.134-0.145 0.274-0.278 0.423-0.402l0.007-0.006-3.702 2.082zM20.514 26.082c0.43 0 0.767 0.316 0.785 0.726 0 0.316-0.206 0.595-0.487 0.706l-6.62 3.887c-0.102 0.067-0.226 0.107-0.36 0.107-0.122 0-0.236-0.033-0.334-0.091l0.003 0.002-6.303-3.681-0.018-0.018-6.825-3.831c-0.202-0.114-0.337-0.327-0.337-0.572 0-0.001 0-0.003 0-0.004v0l0.056-7.308-0.074-7.735c-0.001-0.011-0.001-0.024-0.001-0.038 0-0.246 0.134-0.46 0.333-0.574l0.003-0.002 6.396-3.607 6.713-3.943c0.102-0.067 0.227-0.107 0.361-0.107 0.122 0 0.236 0.033 0.334 0.090l-0.003-0.002 6.302 3.681h0.018c0.244 0.131 0.393 0.353 0.393 0.633 0 0.409-0.318 0.743-0.748 0.743-0.003 0-0.007 0-0.010 0-0.178 0-0.343-0.056-0.478-0.15l0.003 0.002c-0.822-0.452-1.775-0.828-2.777-1.080l-0.084-0.018c-0.877-0.226-1.883-0.355-2.92-0.355-0.091 0-0.182 0.001-0.272 0.003l0.013-0c-3.385 0.074-6.415 1.487-8.583 3.737-2.118 2.188-3.424 5.173-3.424 8.464 0 0.077 0.001 0.154 0.002 0.231l-0-0.011c0.068 3.362 1.496 6.378 3.754 8.53l0.005 0.005c2.206 2.107 5.202 3.404 8.501 3.404 0.081 0 0.162-0.001 0.243-0.002l-0.012 0c1.134-0.022 2.219-0.196 3.246-0.505l-0.085 0.022c1.112-0.333 2.079-0.763 2.976-1.298l-0.060 0.033 0.019-0.018c0.093-0.019 0.224-0.056 0.356-0.056zM1.367 18.739l-0.037 4.221 3.721 2.082-0.094-0.093c-1.738-1.673-3.010-3.812-3.59-6.21zM10.174 27.961l3.646 2.138 3.665-2.158-0.132 0.038c-0.987 0.301-2.123 0.483-3.299 0.502l-0.010 0c-0.097 0.003-0.21 0.004-0.324 0.004-1.265 0-2.486-0.192-3.634-0.548l0.087 0.023zM17.447 3.547l-3.665-2.139-3.665 2.156c1.016-0.306 2.188-0.5 3.4-0.538l0.022-0.001c1.121-0.017 2.24 0.109 3.329 0.372 0.206 0.055 0.393 0.092 0.58 0.149v0.001z">
      </path>
      <path fill="#0b7572" style="fill: var(--color1, #0b7572)"
        d="M17.485 9.107c0.318 0.167 0.43 0.576 0.262 0.892s-0.58 0.428-0.897 0.26c-0.441-0.246-0.951-0.45-1.489-0.585l-0.044-0.009c-0.475-0.118-1.020-0.186-1.581-0.186-0.016 0-0.032 0-0.048 0h0.002c-1.733 0.033-3.291 0.76-4.412 1.913l-0.001 0.002c-1.121 1.152-1.776 2.732-1.758 4.462 0.036 1.727 0.767 3.277 1.924 4.386l0.002 0.002c1.123 1.082 2.654 1.749 4.34 1.749 0.052 0 0.104-0.001 0.155-0.002l-0.008 0c0.375 0 0.673 0.279 0.673 0.651s-0.281 0.669-0.655 0.669c-0.046 0.001-0.1 0.002-0.155 0.002-2.052 0-3.916-0.808-5.29-2.123l0.003 0.003c-1.411-1.342-2.3-3.222-2.338-5.309l-0-0.007c-0.001-0.043-0.001-0.095-0.001-0.146 0-2.048 0.814-3.905 2.136-5.267l-0.002 0.002c1.356-1.406 3.245-2.29 5.341-2.325l0.007-0c0.059-0.002 0.128-0.003 0.198-0.003 0.634 0 1.249 0.083 1.834 0.238l-0.050-0.011c0.636 0.185 1.271 0.427 1.852 0.743z">
      </path>
      <path fill="#0b7572" style="fill: var(--color1, #0b7572)"
        d="M8.678 8.511c0.13-0.092 0.298-0.055 0.393 0.075 0.093 0.13 0.055 0.297-0.076 0.391-1.111 0.78-2.004 1.798-2.615 2.985l-0.022 0.046c-0.566 1.103-0.898 2.407-0.898 3.788 0 0.041 0 0.082 0.001 0.123l-0-0.006c0.038 2.287 1.029 4.351 2.562 5.82l0.018 0.018c1.477 1.418 3.487 2.29 5.701 2.29 0.080 0 0.159-0.001 0.238-0.003l-0.012 0c0.773-0.019 1.511-0.14 2.21-0.35l-0.059 0.015c0.761-0.222 1.425-0.52 2.037-0.895l-0.036 0.021c0.131-0.074 0.318-0.038 0.393 0.092s0.037 0.316-0.094 0.391c-0.668 0.4-1.384 0.713-2.131 0.929-0.685 0.209-1.475 0.337-2.292 0.353l-0.009 0c-0.060 0.001-0.13 0.002-0.201 0.002-2.382 0-4.545-0.936-6.142-2.46l0.003 0.003-0.018-0.018c-1.653-1.564-2.693-3.762-2.73-6.203l-0-0.007c-0.038-1.469 0.318-2.902 0.953-4.184 0.699-1.298 1.65-2.375 2.796-3.198l0.028-0.019z">
      </path>
      <path fill="#0b7572" style="fill: var(--color1, #0b7572)"
        d="M11.203 16.042c-0.018 0-0.038-0.13-0.038-0.279s0.020-0.279 0.038-0.279h2.318v-2.567c0-0.018 0.132-0.036 0.281-0.036s0.281 0.018 0.281 0.036v2.567h2.318c0.020 0 0.039 0.129 0.039 0.279s-0.020 0.279-0.038 0.279h-2.319v2.566c0 0.019-0.131 0.038-0.281 0.038s-0.281-0.019-0.281-0.038v-2.564h-2.319zM31.863 9.664h-8.502c-0.322 0-0.515 0.105-0.515 0.509v10.54c0 0.404 0.193 0.509 0.516 0.509h1.76c0.344 0 0.515-0.105 0.515-0.509v-8.585h3.951v8.585c0 0.404 0.193 0.509 0.515 0.509h1.761c0.322 0 0.515-0.105 0.515-0.509v-10.54c0-0.404-0.193-0.509-0.515-0.509zM43.156 22.137c0 0.404 0.193 0.511 0.516 0.511h1.459c0.322 0 0.516-0.106 0.516-0.51v-3.018c0-0.319-0.108-0.509-0.516-0.509h-0.858v-8.436c0-0.404-0.192-0.511-0.514-0.511h-6.807c-0.321 0-0.514 0.106-0.514 0.51l-0.559 7.268c-0.043 0.658-0.215 1.169-1.18 1.169-0.409 0-0.516 0.191-0.516 0.511v3.017c0 0.404 0.193 0.509 0.516 0.509h1.481c0.322 0 0.515-0.105 0.515-0.509v-1.105h6.484v1.105h-0.022zM38.604 17.589l0.451-5.546h2.533v6.694h-3.692c0.429-0.149 0.665-0.511 0.708-1.148zM55.801 15.23c0.15-0.063 1.288-0.637 1.288-2.401 0-1.636-1.244-3.167-4.122-3.167h-4.959c-0.409 0-0.515 0.191-0.515 0.51v10.54c0 0.319 0.107 0.509 0.515 0.509h5.217c2.469 0 4.23-1.146 4.23-3.377 0-0.014 0-0.031 0-0.048 0-1.134-0.67-2.112-1.636-2.559l-0.017-0.007h-0.001zM53.246 18.716h-2.984v-6.588h2.705c0.924 0 1.481 0.191 1.481 0.978 0 0.679-0.451 1.040-1.481 1.040h-0.236c-0.409 0-0.515 0.192-0.515 0.511v1.339c0 0.319 0.107 0.511 0.515 0.511h0.408c0.858 0 1.481 0.255 1.481 1.062s-0.494 1.148-1.375 1.148v-0.001z">
      </path>
    </symbol>
    <symbol id="lock" viewBox="0 0 31 32">
      <path fill="#0b7572" style="fill: var(--color1, #0b7572)"
        d="M29.050 9.389h-27.127c-0.663 0.001-1.201 0.538-1.201 1.202v0 19.374c0.001 0.663 0.538 1.199 1.2 1.201h27.128c0.326 0 0.63-0.133 0.842-0.351 0.218-0.219 0.351-0.516 0.351-0.85v-19.375c-0.001-0.66-0.534-1.196-1.194-1.2h-0zM16.052 21.989v6.223c-0.002 0.31-0.253 0.561-0.563 0.564h-0c-0.311-0.002-0.562-0.253-0.565-0.563v-6.226c-0.58-0.231-0.982-0.788-0.982-1.439 0-0.853 0.692-1.545 1.545-1.545 0 0 0 0 0 0h-0c0.001 0 0.003 0 0.004 0 0.853 0 1.545 0.692 1.545 1.545 0 0.652-0.403 1.209-0.974 1.436l-0.010 0.004z">
      </path>
      <path fill="#0b7572" style="fill: var(--color1, #0b7572)"
        d="M27.528 11.78l-24.081-0.018c0.098-3.173 1.426-6.036 3.524-8.128 2.178-2.184 5.192-3.53 8.516-3.53h-0.001c0.003 0 0.006 0 0.009 0 3.324 0 6.332 1.349 8.507 3.53l0 0c2.098 2.092 3.426 4.955 3.525 8.146zM24.974 9.566c-0.474-1.717-1.356-3.189-2.536-4.361l-0.001-0.001c-1.774-1.78-4.227-2.881-6.938-2.881-0.005 0-0.009 0-0.014 0h0.001c-0.004 0-0.009 0-0.014 0-2.71 0-5.162 1.1-6.936 2.879l-0 0c-1.179 1.174-2.060 2.646-2.519 4.294l-0.016 0.069h18.973z">
      </path>
    </symbol>
    <symbol id="linkedin" viewBox="0 0 32 32">
      <path fill="#bfbfc7" style="fill: var(--color2, #bfbfc7)"
        d="M31.992 32h0.008v-11.546c0-5.648-1.227-9.998-7.896-9.998-3.206 0-5.358 1.742-6.235 3.394h-0.093v-2.866h-6.323v21.014h6.584v-10.405c0-2.741 0.525-5.39 3.952-5.39 3.376 0 3.426 3.128 3.426 5.565v10.232h6.578zM0.525 10.984h6.592v21.014h-6.592v-21.014zM3.818 0c-2.106 0-3.818 1.693-3.818 3.779 0.008 2.105 1.713 3.809 3.817 3.816h0.001c2.105-0.007 3.809-1.711 3.818-3.815v-0.001c0-2.086-1.712-3.779-3.818-3.779z">
      </path>
    </symbol>
    <symbol id="instagram" viewBox="0 0 32 32">
      <path fill="#bfbfc7" style="fill: var(--color2, #bfbfc7)"
        d="M23.338 0h-14.675c-4.782 0.005-8.657 3.881-8.662 8.662v14.676c0.005 4.782 3.881 8.657 8.662 8.662h14.676c4.782-0.005 8.657-3.881 8.662-8.662v-14.676c-0.005-4.782-3.881-8.657-8.662-8.662h-0.001zM16 24.75c-4.831-0.005-8.745-3.92-8.75-8.75v-0c0.005-4.831 3.92-8.745 8.75-8.75h0.001c4.831 0.005 8.745 3.92 8.75 8.75v0.001c-0.005 4.831-3.92 8.745-8.75 8.75h-0.001zM24.96 9.314c-1.428-0.001-2.585-1.158-2.587-2.585v-0c0-1.424 1.16-2.586 2.586-2.586 1.427 0 2.586 1.16 2.586 2.586s-1.158 2.586-2.586 2.586z">
      </path>
      <path fill="#bfbfc7" style="fill: var(--color2, #bfbfc7)"
        d="M16 10.667c-2.944 0.003-5.331 2.388-5.334 5.332v0c0.004 2.944 2.39 5.33 5.334 5.333h0c2.944-0.004 5.329-2.389 5.333-5.332v-0c-0.004-2.944-2.389-5.329-5.332-5.333h-0zM24.96 6.019c-0.010-0-0.022-0.001-0.034-0.001-0.392 0-0.71 0.318-0.71 0.71s0.318 0.71 0.71 0.71c0.012 0 0.024-0 0.035-0.001l-0.002 0c0.378-0.019 0.677-0.329 0.677-0.71s-0.299-0.691-0.675-0.71l-0.002-0z">
      </path>
    </symbol>
    <symbol id="group" viewBox="0 0 53 32">
      <path fill="#0b7572" style="fill: var(--color1, #0b7572)"
        d="M18.080 24.953l16.225 6.781v-16.515l-16.225-6.027v15.761zM46.767 16.32l-4.521 1.621v-4.578l-5.968 2.086v16.284l16.804-6.78v-15.472l-6.316 2.259v4.579zM41.376 28.023l-0.694 0.29v-3.651l0.694-0.231v3.593zM42.593 27.561l-0.695 0.289v-3.65l0.695-0.233v3.594zM45.027 26.575l-0.695 0.231v-3.593l0.695-0.231v3.593zM46.243 26.053l-0.694 0.29v-3.535l0.695-0.233v3.477zM48.678 21.591l0.694-0.231v3.419l-0.694 0.289v-3.477zM47.287 22.113l0.695-0.231v3.477l-0.695 0.288v-3.534zM46.765 9.482l6.317-2.318-17.501-6.143-5.621 1.97 16.806 6.374v0.116zM24.976 4.73l-6.896 2.433 17.501 6.374 6.606-2.375-17.211-6.432zM0.928 23.446h14.371v-2.897h-13.038l-1.333 2.896zM3.306 18.347h11.995v-2.897h-10.662l-1.333 2.898zM5.68 13.074v0.231h9.619v-2.897h-8.345l-1.275 2.666z">
      </path>
    </symbol>
    <symbol id="factory" viewBox="0 0 32 32">
      <path fill="#0b7572" style="fill: var(--color1, #0b7572)"
        d="M12.295 0.439c-2.227 4.808-7.581 0.812-10.373 3.705 0.65-4.978 4.994-0.967 10.373-3.705zM5.626 4.885v9.077l5.187 2.779v-5.187l10.374 5.187v-5.187l10.373 5.187v14.819h-31.121v-26.675h5.187zM27.486 21.557h-5.187v4.446h5.187v-4.446zM18.594 21.557h-5.187v4.446h5.187v-4.446zM9.703 21.557h-5.189v4.446h5.187v-4.446z">
      </path>
    </symbol>
    <symbol id="e-mail" viewBox="0 0 51 32">
      <path fill="#0b7572" style="fill: var(--color1, #0b7572)"
        d="M3.746 0c-0.736 0-1.411 0.218-1.989 0.576l22.163 18.483c1.014 0.848 2.384 0.848 3.395 0l22.13-18.482c-0.565-0.361-1.253-0.576-1.992-0.578h-43.709zM0.214 2.48c-0.133 0.381-0.214 0.786-0.214 1.213v24.614c0 0.742 0.226 1.424 0.605 2l15.864-14.25-16.254-13.578zM50.986 2.48l-16.214 13.558 15.824 14.269c0.379-0.576 0.605-1.258 0.605-2v-24.614c0-0.427-0.080-0.832-0.214-1.213zM32.858 17.654l-3.941 3.288c-0.89 0.743-2.046 1.194-3.307 1.194s-2.417-0.451-3.315-1.201l0.008 0.007-3.922-3.269-15.747 14.154c0.352 0.107 0.723 0.173 1.112 0.173h43.707c0.39 0 0.76-0.064 1.114-0.173l-15.707-14.173z">
      </path>
    </symbol>
    <symbol id="coin" viewBox="0 0 32 32">
      <path fill="#0b7572" style="fill: var(--color1, #0b7572)"
        d="M7.36 7.36c2.206-2.212 5.257-3.58 8.627-3.58 0.005 0 0.009 0 0.014 0h-0.001c3.373 0 6.429 1.371 8.64 3.582 2.212 2.207 3.581 5.258 3.581 8.629 0 0.004 0 0.008 0 0.012v-0.001c0 3.371-1.371 6.428-3.581 8.639-2.206 2.212-5.257 3.581-8.628 3.581-0.004 0-0.008 0-0.012 0h0.001c-0.003 0-0.007 0-0.011 0-3.371 0-6.423-1.369-8.629-3.582l-0-0c-2.212-2.206-3.581-5.257-3.581-8.628 0-0.004 0-0.008 0-0.012v0.001c0-3.372 1.371-6.429 3.581-8.64zM31.253 16c0-4.213-1.71-8.026-4.469-10.784-2.753-2.761-6.561-4.469-10.768-4.469-0.005 0-0.011 0-0.016 0h0.001c-4.213 0-8.026 1.71-10.784 4.469-2.761 2.753-4.469 6.561-4.469 10.768 0 0.006 0 0.011 0 0.017v-0.001c0 4.213 1.71 8.026 4.469 10.784 2.753 2.761 6.562 4.469 10.768 4.469 0.005 0 0.011 0 0.016 0h-0.001c4.213 0 8.026-1.71 10.784-4.469 2.761-2.753 4.469-6.561 4.469-10.768 0-0.006 0-0.011 0-0.017v0.001z">
      </path>
      <path fill="#0b7572" style="fill: var(--color1, #0b7572)"
        d="M12.474 12.526c0-1.084 0.381-1.961 1.15-2.627 0.512-0.453 1.275-0.727 2.283-0.829v-0.726h0.899v0.726c0.882 0.084 1.585 0.346 2.103 0.775 0.667 0.547 1.067 1.311 1.197 2.275l-1.572 0.239c-0.090-0.596-0.274-1.055-0.56-1.371-0.281-0.316-0.673-0.53-1.168-0.631v4.385c0.763 0.191 1.275 0.346 1.519 0.453 0.471 0.208 0.859 0.459 1.156 0.757 0.299 0.298 0.53 0.655 0.691 1.066 0.16 0.411 0.244 0.858 0.244 1.334 0 1.055-0.339 1.931-1.007 2.64s-1.537 1.085-2.604 1.132v1.537h-0.9v-1.518c-0.762-0.096-1.376-0.268-1.853-0.512-0.477-0.245-0.887-0.644-1.233-1.186-0.346-0.548-0.548-1.216-0.602-2.002l1.531-0.286c0.119 0.816 0.329 1.419 0.626 1.799 0.429 0.542 0.941 0.841 1.537 0.906v-4.838c-0.625-0.118-1.263-0.363-1.919-0.726-0.476-0.265-0.857-0.649-1.113-1.112l-0.007-0.015c-0.262-0.477-0.393-1.019-0.393-1.632l-0.006-0.013zM27.202 16c0-3.093-1.251-5.893-3.283-7.919-2.022-2.028-4.819-3.283-7.909-3.283-0.003 0-0.006 0-0.009 0h0c-3.093 0-5.893 1.251-7.919 3.283-2.028 2.022-3.282 4.819-3.282 7.908 0 0.004 0 0.008 0 0.011v-0.001c0 3.092 1.251 5.892 3.283 7.919 2.022 2.028 4.819 3.282 7.908 3.282 0.004 0 0.008 0 0.011 0h-0.001c3.092 0 5.892-1.251 7.918-3.282 2.028-2.022 3.282-4.819 3.282-7.908 0-0.004 0-0.008 0-0.011v0.001z">
      </path>
      <path fill="#0b7572" style="fill: var(--color1, #0b7572)"
        d="M15.906 14.546v-4.207c-0.591 0.090-1.061 0.329-1.401 0.709-0.34 0.382-0.512 0.834-0.512 1.365 0 0.517 0.142 0.953 0.434 1.298 0.292 0.352 0.781 0.631 1.472 0.834h0.005zM18.844 18.449c0-0.548-0.138-0.995-0.412-1.329s-0.821-0.638-1.638-0.9v4.629c0.589-0.064 1.102-0.347 1.463-0.765l0.002-0.003c0.387-0.441 0.578-0.982 0.578-1.632h0.006z">
      </path>
    </symbol>
  </defs>
</svg>