<svg aria-hidden="true" style="position: absolute; width: 0; height: 0; overflow: hidden;" version="1.1"
  xmlns="http://www.w3.org/2000/svg" xmlns:xlink="http://www.w3.org/1999/xlink">
  <defs>
    <symbol id="icon-phone" viewBox="0 0 23 32">
      <path fill="#0b7572" style="fill: var(--color1, #0b7572)"
        d="M10.988 6.699l-3.36-5.827c-0.855-1.482-2.335-0.626-2.335-0.626l-2.072 1.198 5.069 8.791 2.072-1.198c1.48-0.855 0.626-2.337 0.626-2.337zM19.599 31.537l-5.069-8.791c-1.252 0.723-2.399-0.613-3.455-2.046-0.696-0.953-1.33-1.944-1.895-2.92-0.562-0.978-1.101-2.023-1.578-3.104-0.712-1.631-1.249-3.322-0.043-4.019l-5.069-8.791c-1.786 1.033-5.34 6.531 1.725 18.783l0 0.001c7.086 12.289 13.598 11.92 15.383 10.887zM23.027 27.579l-3.36-5.827c-0.855-1.482-2.335-0.626-2.335-0.626l-2.073 1.198 5.069 8.791 2.072-1.198c1.48-0.856 0.626-2.338 0.626-2.338z">
      </path>
    </symbol>
    <symbol id="icon-letter" viewBox="0 0 51 32">
      <path fill="#0b7572" style="fill: var(--color1, #0b7572)"
        d="M3.746 0c-0.736 0-1.412 0.218-1.99 0.577l22.166 18.481c1.015 0.847 2.382 0.847 3.395 0l22.127-18.481c-0.578-0.359-1.254-0.577-1.99-0.577h-43.707zM0.215 2.481c-0.134 0.38-0.215 0.785-0.215 1.212v24.615c0 0.741 0.226 1.423 0.605 2l15.863-14.25-16.254-13.577zM50.985 2.481l-16.215 13.558 15.824 14.269c0.379-0.577 0.605-1.259 0.605-2v-24.615c0-0.426-0.081-0.831-0.215-1.212zM32.859 17.654l-3.941 3.288c-1.906 1.594-4.708 1.592-6.615 0l-3.922-3.269-15.746 14.154c0.352 0.108 0.723 0.173 1.112 0.173h43.707c0.389 0 0.76-0.065 1.112-0.173l-15.707-14.173z">
      </path>
    </symbol>
    <symbol id="icon-phone-2" viewBox="0 0 32 32">
      <path fill="#0b7572" style="fill: var(--color1, #0b7572)"
        d="M16 0c-8.844 0-16 7.152-16 16 0 3.337 1.018 6.423 2.825 9.075 0.067 0.1 0.111 0.213 0.129 0.332s0.008 0.241-0.029 0.355l-1.625 5.438 5.325-1.837c0.114-0.038 0.235-0.050 0.354-0.035s0.233 0.057 0.334 0.122c2.494 1.618 5.48 2.55 8.688 2.55 8.848 0 16-7.152 16-16s-7.152-16-16-16zM9.45 6.975l2.912 4.813-1.213 1.2c-0.123 0.125-0.203 0.286-0.225 0.46s0.013 0.35 0.1 0.502c1.85 3.204 4.043 5.697 7.113 7.050 0.147 0.065 0.311 0.085 0.469 0.056s0.304-0.105 0.419-0.218l1.288-1.288 4.7 2.938c-0.52 1.171-1.199 1.869-1.975 2.275-0.899 0.471-1.997 0.56-3.25 0.3-2.506-0.52-5.533-2.489-8-5.012s-4.376-5.591-4.862-8.088c-0.243-1.248-0.136-2.323 0.325-3.175 0.397-0.734 1.071-1.362 2.2-1.813z">
      </path>
    </symbol>
    <symbol id="icon-skype" viewBox="0 0 32 32">
      <path fill="#0b7572" style="fill: var(--color1, #0b7572)"
        d="M30.867 18.671c-0.010 0.056-0.028-0.051 0 0 0.165-0.901 0.252-1.824 0.252-2.746 0-2.045-0.399-4.028-1.188-5.896-0.761-1.804-1.85-3.424-3.239-4.814-1.386-1.391-3.003-2.483-4.802-3.246-1.862-0.79-3.841-1.19-5.881-1.19-0.961 0-1.924 0.090-2.861 0.271-0.002 0-0.007 0.001-0.007 0.001-1.286-0.685-2.731-1.051-4.195-1.051-2.389 0-4.636 0.933-6.325 2.627s-2.62 3.946-2.62 6.341c0 1.525 0.391 3.023 1.125 4.347-0.149 0.858-0.228 1.735-0.228 2.611 0 2.045 0.399 4.029 1.188 5.896 0.76 1.805 1.85 3.423 3.237 4.814 1.388 1.391 3.003 2.484 4.804 3.245 1.863 0.792 3.842 1.192 5.882 1.192 0.888 0 1.778-0.081 2.646-0.236 1.338 0.759 2.854 1.162 4.401 1.162 2.389 0 4.634-0.931 6.324-2.626 1.69-1.692 2.62-3.945 2.62-6.34 0-1.53-0.393-3.033-1.133-4.363zM16.069 25.202c-5.368 0-7.77-2.646-7.77-4.628 0-1.017 0.749-1.73 1.781-1.73 2.297 0 1.703 3.307 5.989 3.307 2.194 0 3.406-1.194 3.406-2.416 0-0.735-0.362-1.55-1.807-1.907l-4.775-1.195c-3.846-0.967-4.543-3.050-4.543-5.009 0-4.067 3.82-5.594 7.407-5.594 3.305 0 7.2 1.831 7.2 4.271 0 1.046-0.903 1.653-1.935 1.653-1.96 0-1.6-2.72-5.549-2.72-1.96 0-3.045 0.89-3.045 2.162 0 1.271 1.548 1.677 2.892 1.983l3.534 0.787c3.871 0.865 4.853 3.13 4.853 5.264 0 3.305-2.53 5.773-7.638 5.773z">
      </path>
    </symbol>
    <symbol id="icon-vk" viewBox="0 0 55 32">
      <path fill="#bfbfc7" style="fill: var(--color2, #bfbfc7)"
        d="M45.298 18.35c-0.883-1.12-0.63-1.618 0-2.619 0.011-0.011 7.297-10.128 8.047-13.559l0.005-0.002c0.373-1.25 0-2.169-1.804-2.169h-5.969c-1.519 0-2.22 0.789-2.595 1.671 0 0-3.039 7.31-7.338 12.048-1.387 1.369-2.029 1.808-2.786 1.808-0.373 0-0.953-0.439-0.953-1.689v-11.669c0-1.499-0.425-2.169-1.683-2.169h-9.385c-0.953 0-1.519 0.699-1.519 1.351 0 1.422 2.149 1.749 2.373 5.749v8.679c0 1.902-0.344 2.251-1.105 2.251-2.029 0-6.953-7.339-9.872-15.739-0.589-1.63-1.165-2.288-2.695-2.288h-5.971c-1.704 0-2.047 0.789-2.047 1.671 0 1.559 2.029 9.31 9.435 19.55 4.936 6.99 11.887 10.777 18.21 10.777 3.801 0 4.265-0.841 4.265-2.288 0-6.679-0.344-7.31 1.56-7.31 0.883 0 2.402 0.439 5.95 3.81 4.056 3.998 4.722 5.787 6.992 5.787h5.969c1.701 0 2.563-0.841 2.068-2.501-1.135-3.49-8.805-10.67-9.151-11.15z">
      </path>
    </symbol>
    <symbol id="icon-linkedin" viewBox="0 0 32 32">
      <path fill="#bfbfc7" style="fill: var(--color2, #bfbfc7)"
        d="M31.992 32v-0.001h0.008v-11.544c0-5.648-1.228-9.998-7.897-9.998-3.206 0-5.357 1.742-6.236 3.393h-0.093v-2.866h-6.323v21.015h6.584v-10.406c0-2.74 0.524-5.389 3.952-5.389 3.377 0 3.427 3.127 3.427 5.565v10.231h6.577z">
      </path>
      <path fill="#bfbfc7" style="fill: var(--color2, #bfbfc7)" d="M0.525 10.984h6.592v21.015h-6.592v-21.015z"></path>
      <path fill="#bfbfc7" style="fill: var(--color2, #bfbfc7)"
        d="M3.818 0c-2.108 0-3.818 1.693-3.818 3.78s1.71 3.815 3.818 3.815c2.108 0 3.818-1.729 3.818-3.815-0.001-2.087-1.712-3.78-3.818-3.78v0z">
      </path>
    </symbol>
    <symbol id="icon-instagram" viewBox="0 0 32 32">
      <path fill="#bfbfc7" style="fill: var(--color2, #bfbfc7)"
        d="M23.338 0h-14.676c-4.776 0-8.662 3.886-8.662 8.662v14.676c0 4.776 3.886 8.662 8.662 8.662h14.676c4.776 0 8.662-3.886 8.662-8.662v-14.676c0-4.776-3.886-8.662-8.662-8.662v0zM16 24.75c-4.825 0-8.75-3.925-8.75-8.75s3.925-8.75 8.75-8.75c4.825 0 8.75 3.925 8.75 8.75s-3.925 8.75-8.75 8.75zM24.959 9.314c-1.426 0-2.585-1.16-2.585-2.585s1.16-2.586 2.585-2.586c1.426 0 2.586 1.16 2.586 2.586s-1.16 2.585-2.586 2.585z">
      </path>
      <path fill="#bfbfc7" style="fill: var(--color2, #bfbfc7)"
        d="M15.999 10.666c-2.941 0-5.333 2.392-5.333 5.333s2.393 5.333 5.333 5.333c2.941 0 5.333-2.393 5.333-5.333s-2.392-5.333-5.333-5.333z">
      </path>
      <path fill="#bfbfc7" style="fill: var(--color2, #bfbfc7)"
        d="M24.959 6.019c-0.391 0-0.709 0.318-0.709 0.709s0.318 0.709 0.709 0.709c0.391 0 0.71-0.318 0.71-0.709s-0.318-0.709-0.71-0.709z">
      </path>
    </symbol>
    <symbol id="icon-logo" viewBox="0 0 57 32">
      <path fill="#0b7572" style="fill: var(--color1, #0b7572)"
        d="M1.31 8.605l0.038 4.221c0.522-2.223 1.641-4.261 3.235-5.895 0.131-0.148 0.281-0.279 0.43-0.408l-3.702 2.082zM20.514 26.082c0.43 0 0.767 0.316 0.785 0.726 0 0.316-0.205 0.595-0.486 0.707l-6.62 3.886c-0.205 0.13-0.467 0.149-0.691 0.018l-6.302-3.681-0.018-0.018-6.825-3.831c-0.102-0.057-0.188-0.141-0.247-0.242s-0.090-0.217-0.089-0.334l0.056-7.308-0.074-7.734c-0.019-0.242 0.112-0.483 0.336-0.613l6.396-3.607 6.712-3.943c0.206-0.13 0.468-0.149 0.692-0.018l6.301 3.681h0.018c0.244 0.13 0.393 0.354 0.393 0.632 0 0.41-0.318 0.744-0.748 0.744-0.174 0.002-0.343-0.050-0.486-0.149-0.904-0.485-1.865-0.854-2.861-1.097-1.039-0.257-2.108-0.376-3.179-0.353-3.385 0.074-6.414 1.487-8.582 3.737-1.114 1.151-1.989 2.511-2.576 4.001s-0.875 3.081-0.846 4.683c0.031 1.6 0.379 3.179 1.025 4.644s1.574 2.787 2.734 3.891c2.349 2.241 5.487 3.463 8.732 3.403 1.070-0.020 2.133-0.182 3.161-0.483 1.020-0.301 2-0.726 2.917-1.264l0.018-0.018c0.093-0.019 0.224-0.056 0.356-0.056v-0.001zM1.366 18.739l-0.037 4.221 3.721 2.082-0.093-0.094c-1.739-1.673-3.010-3.811-3.59-6.21zM10.173 27.96l3.646 2.138 3.665-2.157-0.132 0.038c-1.066 0.316-2.187 0.483-3.309 0.502-1.31 0.035-2.617-0.141-3.871-0.52zM17.447 3.548l-3.665-2.139-3.665 2.157c1.113-0.322 2.263-0.504 3.422-0.539 1.121-0.016 2.239 0.109 3.329 0.372 0.206 0.055 0.392 0.092 0.58 0.149v0.001z">
      </path>
      <path fill="#0b7572" style="fill: var(--color1, #0b7572)"
        d="M17.485 9.107c0.317 0.167 0.43 0.576 0.261 0.892s-0.579 0.428-0.898 0.261c-0.483-0.264-0.999-0.464-1.533-0.595-0.533-0.127-1.079-0.189-1.627-0.186-1.666 0.031-3.253 0.719-4.413 1.915-1.121 1.152-1.776 2.733-1.758 4.462 0.016 0.822 0.195 1.633 0.525 2.386s0.807 1.433 1.401 2.002c0.595 0.573 1.299 1.023 2.069 1.323s1.592 0.444 2.419 0.425c0.374 0 0.673 0.279 0.673 0.651s-0.28 0.67-0.655 0.67c-2.023 0.040-3.979-0.722-5.441-2.12-0.723-0.687-1.302-1.511-1.703-2.424s-0.617-1.896-0.635-2.893c-0.019-0.998 0.159-1.99 0.525-2.919s0.912-1.776 1.607-2.492c0.694-0.72 1.524-1.297 2.442-1.696s1.905-0.613 2.905-0.629c0.668-0.019 1.335 0.057 1.982 0.224 0.636 0.186 1.272 0.427 1.852 0.743z">
      </path>
      <path fill="#0b7572" style="fill: var(--color1, #0b7572)"
        d="M8.678 8.512c0.13-0.092 0.299-0.055 0.393 0.074s0.056 0.298-0.075 0.391c-1.116 0.776-2.022 1.818-2.636 3.031-0.608 1.211-0.916 2.55-0.898 3.905 0.038 2.286 1.029 4.35 2.562 5.819l0.018 0.018c0.787 0.755 1.717 1.345 2.734 1.738s2.103 0.579 3.193 0.549c0.728-0.017 1.451-0.13 2.151-0.335 0.691-0.204 1.365-0.483 2.001-0.874 0.131-0.074 0.318-0.038 0.392 0.092s0.038 0.316-0.094 0.391c-0.668 0.4-1.384 0.713-2.132 0.93-0.747 0.223-1.515 0.335-2.3 0.353-2.355 0.053-4.634-0.829-6.339-2.454l-0.018-0.018c-0.847-0.8-1.525-1.762-1.994-2.828s-0.719-2.216-0.736-3.381c-0.038-1.469 0.318-2.901 0.954-4.184 0.678-1.277 1.645-2.379 2.824-3.217z">
      </path>
      <path fill="#0b7572" style="fill: var(--color1, #0b7572)"
        d="M11.203 16.043c-0.018 0-0.038-0.13-0.038-0.279s0.019-0.279 0.038-0.279h2.318v-2.566c0-0.018 0.132-0.037 0.281-0.037s0.281 0.018 0.281 0.037v2.566h2.318c0.020 0 0.038 0.13 0.038 0.279s-0.019 0.279-0.038 0.279h-2.319v2.566c0 0.018-0.131 0.038-0.281 0.038s-0.28-0.019-0.28-0.038v-2.566h-2.319zM31.863 9.664h-8.502c-0.323 0-0.516 0.106-0.516 0.51v10.54c0 0.404 0.194 0.51 0.516 0.51h1.76c0.344 0 0.515-0.106 0.515-0.51v-8.585h3.95v8.585c0 0.404 0.193 0.51 0.515 0.51h1.761c0.322 0 0.515-0.106 0.515-0.51v-10.54c0-0.404-0.193-0.51-0.515-0.51zM43.156 22.137c0 0.404 0.193 0.51 0.516 0.51h1.459c0.323 0 0.516-0.106 0.516-0.51v-3.017c0-0.319-0.107-0.51-0.516-0.51h-0.858v-8.436c0-0.404-0.193-0.51-0.515-0.51h-6.806c-0.322 0-0.515 0.106-0.515 0.51l-0.558 7.267c-0.043 0.659-0.215 1.169-1.181 1.169-0.408 0-0.515 0.191-0.515 0.51v3.017c0 0.404 0.193 0.51 0.515 0.51h1.482c0.322 0 0.515-0.106 0.515-0.51v-1.105h6.484v1.105h-0.022zM38.605 17.589l0.45-5.546h2.533v6.694h-3.692c0.429-0.149 0.665-0.51 0.709-1.148zM55.801 15.23c0.15-0.063 1.288-0.637 1.288-2.401 0-1.636-1.245-3.166-4.122-3.166h-4.959c-0.408 0-0.515 0.191-0.515 0.51v10.54c0 0.319 0.107 0.51 0.515 0.51h5.217c2.469 0 4.23-1.147 4.23-3.378 0.009-0.549-0.142-1.090-0.436-1.554s-0.717-0.833-1.217-1.060h-0.001zM53.246 18.715h-2.983v-6.587h2.705c0.923 0 1.482 0.191 1.482 0.978 0 0.68-0.451 1.040-1.482 1.040h-0.236c-0.408 0-0.515 0.192-0.515 0.51v1.339c0 0.319 0.107 0.51 0.515 0.51h0.408c0.859 0 1.482 0.255 1.482 1.062s-0.494 1.148-1.374 1.148l-0.001-0.001z">
      </path>
    </symbol>
    <symbol id="icon-Grouplock" viewBox="0 0 31 32">
      <path fill="#0b7572" style="fill: var(--color1, #0b7572)"
        d="M29.050 9.39h-27.127c-0.328 0-0.631 0.133-0.849 0.352s-0.352 0.516-0.352 0.849v19.374c0 0.328 0.133 0.631 0.352 0.849s0.516 0.352 0.849 0.352h27.127c0.328 0 0.631-0.133 0.843-0.352 0.218-0.218 0.352-0.516 0.352-0.849v-19.374c0-0.328-0.133-0.631-0.352-0.849s-0.516-0.352-0.843-0.352zM16.051 21.989v6.224c0 0.309-0.255 0.564-0.564 0.564s-0.564-0.255-0.564-0.564v-6.224c-0.576-0.224-0.983-0.782-0.983-1.438 0-0.855 0.691-1.547 1.547-1.547s1.547 0.692 1.547 1.547c0 0.655-0.406 1.213-0.983 1.438z">
      </path>
      <path fill="#0b7572" style="fill: var(--color1, #0b7572)"
        d="M27.528 11.78h-24.082c0.097-3.179 1.425-6.048 3.524-8.146 2.178-2.184 5.192-3.53 8.516-3.53s6.339 1.353 8.516 3.53c2.099 2.099 3.427 4.968 3.524 8.146zM24.974 9.566c-0.443-1.638-1.31-3.142-2.535-4.361-1.85-1.85-4.331-2.881-6.952-2.881s-5.101 1.031-6.951 2.881c-1.225 1.225-2.093 2.724-2.536 4.361h18.974z">
      </path>
    </symbol>
    <symbol id="icon-coin" viewBox="0 0 32 32">
      <path fill="#0b7572" style="fill: var(--color1, #0b7572)"
        d="M7.36 7.361c2.211-2.211 5.267-3.581 8.64-3.581s6.429 1.37 8.64 3.581c2.21 2.211 3.581 5.267 3.581 8.64s-1.37 6.429-3.581 8.64c-2.211 2.211-5.267 3.581-8.64 3.581s-6.429-1.37-8.64-3.581-3.581-5.267-3.581-8.64c0-3.372 1.37-6.429 3.581-8.64zM31.253 16c0-4.213-1.71-8.026-4.469-10.785s-6.572-4.469-10.785-4.469c-4.213 0-8.026 1.71-10.785 4.469s-4.469 6.572-4.469 10.785c0 4.213 1.71 8.026 4.469 10.785s6.572 4.469 10.785 4.469c4.212 0 8.026-1.71 10.785-4.469s4.469-6.572 4.469-10.785z">
      </path>
      <path fill="#0b7572" style="fill: var(--color1, #0b7572)"
        d="M12.474 12.526c0-1.084 0.381-1.96 1.15-2.628 0.512-0.453 1.275-0.727 2.282-0.828v-0.727h0.9v0.727c0.882 0.083 1.585 0.346 2.103 0.775 0.667 0.548 1.067 1.311 1.198 2.276l-1.573 0.238c-0.089-0.596-0.274-1.055-0.56-1.37-0.28-0.316-0.673-0.53-1.168-0.632v4.385c0.763 0.191 1.275 0.346 1.519 0.453 0.471 0.209 0.858 0.459 1.156 0.757s0.53 0.655 0.691 1.066c0.161 0.411 0.244 0.858 0.244 1.335 0 1.055-0.34 1.93-1.007 2.64s-1.537 1.084-2.604 1.132v1.537h-0.9v-1.519c-0.763-0.095-1.376-0.268-1.853-0.512s-0.888-0.644-1.233-1.186c-0.345-0.548-0.548-1.216-0.602-2.002l1.531-0.286c0.119 0.816 0.328 1.418 0.626 1.799 0.429 0.542 0.941 0.84 1.537 0.906v-4.838c-0.626-0.119-1.263-0.363-1.918-0.727-0.483-0.274-0.858-0.644-1.12-1.126-0.262-0.477-0.393-1.019-0.393-1.633l-0.006-0.012zM27.203 16c0-3.092-1.251-5.893-3.283-7.919-2.026-2.026-4.826-3.283-7.919-3.283s-5.893 1.251-7.919 3.283c-2.026 2.026-3.283 4.826-3.283 7.919s1.251 5.893 3.283 7.919c2.026 2.026 4.826 3.283 7.919 3.283s5.893-1.251 7.919-3.283c2.026-2.026 3.283-4.826 3.283-7.919z">
      </path>
      <path fill="#0b7572" style="fill: var(--color1, #0b7572)"
        d="M15.906 14.546v-4.207c-0.59 0.089-1.061 0.328-1.4 0.709s-0.512 0.834-0.512 1.364c0 0.518 0.143 0.953 0.435 1.299 0.292 0.352 0.78 0.632 1.472 0.834h0.006z">
      </path>
      <path fill="#0b7572" style="fill: var(--color1, #0b7572)"
        d="M18.843 18.449c0-0.548-0.137-0.995-0.411-1.329s-0.822-0.638-1.639-0.9v4.63c0.59-0.071 1.079-0.328 1.466-0.769s0.578-0.983 0.578-1.633h0.006z">
      </path>
    </symbol>
    <symbol id="icon-list" viewBox="0 0 25 32">
      <path fill="#0b7572" style="fill: var(--color1, #0b7572)"
        d="M3.888 23.888h4.351c0.286 0 0.518 0.232 0.518 0.518v4.351c0 0.286-0.232 0.518-0.518 0.518h-4.351c-0.286 0-0.518-0.232-0.518-0.518v-4.351c0-0.286 0.232-0.518 0.518-0.518zM21.187 17.813h-7.976c-0.286 0-0.518-0.232-0.518-0.518s0.232-0.518 0.518-0.518h7.976c0.286 0 0.518 0.232 0.518 0.518s-0.232 0.518-0.518 0.518zM9.079 7.271l-4.070 4.070c-0.030 0.037-0.073 0.067-0.116 0.091-0.25 0.14-0.561 0.061-0.707-0.189l-1.231-2.133c-0.14-0.244-0.061-0.561 0.189-0.707 0.244-0.14 0.561-0.061 0.707 0.189l0.896 1.554 3.601-3.601c0.201-0.201 0.53-0.201 0.731 0s0.201 0.53 0 0.731v-0.006zM6.422 0.727h-5.904c-0.286 0-0.518 0.232-0.518 0.518v30.162c0 0.286 0.232 0.518 0.518 0.518h23.557c0.286 0 0.518-0.231 0.518-0.518v-30.162c0-0.286-0.232-0.518-0.518-0.518h-5.904v2.821c0 0.286-0.232 0.518-0.518 0.518h-10.712c-0.286 0-0.518-0.232-0.518-0.518v-2.821zM12.692 26.581c0-0.286 0.232-0.518 0.518-0.518h7.976c0.286 0 0.518 0.232 0.518 0.518s-0.232 0.518-0.518 0.518h-7.976c-0.286 0-0.518-0.232-0.518-0.518zM9.079 15.625l-4.070 4.070c-0.030 0.037-0.073 0.067-0.116 0.091-0.25 0.14-0.561 0.061-0.707-0.189l-1.231-2.133c-0.14-0.244-0.061-0.561 0.189-0.707 0.244-0.14 0.561-0.061 0.707 0.189l0.896 1.554 3.601-3.601c0.201-0.201 0.53-0.201 0.731 0s0.201 0.53 0 0.731v-0.006zM13.21 9.459c-0.286 0-0.518-0.232-0.518-0.518s0.232-0.518 0.518-0.518h7.976c0.286 0 0.518 0.232 0.518 0.518s-0.232 0.518-0.518 0.518h-7.976z">
      </path>
      <path fill="#0b7572" style="fill: var(--color1, #0b7572)" d="M17.652 0.746h-10.712v2.803h10.712v-2.803z"></path>
    </symbol>
    <symbol id="icon-planet" viewBox="0 0 29 32">
      <path fill="#0b7572" style="fill: var(--color1, #0b7572)"
        d="M3.381 9.558c-1.699 2.303-2.702 5.15-2.702 8.233s1.003 5.93 2.702 8.233c1.541-0.568 3.258-1.022 5.102-1.336 0.218-0.036 0.435-0.073 0.653-0.103-0.423-2.031-0.659-4.34-0.659-6.788 0-1.13 0.048-2.23 0.145-3.288l-0.465 0.756-3.3-5.204c-0.508-0.151-1.003-0.32-1.475-0.496v-0.006z">
      </path>
      <path fill="#0b7572" style="fill: var(--color1, #0b7572)"
        d="M8.633 25.589c-1.674 0.284-3.24 0.689-4.648 1.191 0.363 0.429 0.75 0.834 1.167 1.209 1.922 1.771 4.34 3.004 7.024 3.464-0.774-0.78-1.463-1.928-2.025-3.367-0.308-0.786-0.58-1.662-0.816-2.611-0.236 0.036-0.472 0.073-0.701 0.115z">
      </path>
      <path fill="#0b7572" style="fill: var(--color1, #0b7572)"
        d="M10.259 25.354c0.218 0.87 0.471 1.674 0.756 2.4 0.943 2.412 2.194 3.905 3.536 3.905s2.593-1.493 3.536-3.905c0.284-0.725 0.538-1.529 0.756-2.4-1.372-0.163-2.811-0.254-4.286-0.254-1.481 0-2.914 0.085-4.286 0.254h-0.012z">
      </path>
      <path fill="#0b7572" style="fill: var(--color1, #0b7572)"
        d="M9.401 17.786c0 2.412 0.236 4.685 0.653 6.661 1.445-0.175 2.95-0.272 4.497-0.272s3.053 0.097 4.497 0.272c0.417-1.983 0.653-4.25 0.653-6.661s-0.236-4.685-0.653-6.661c-1.445 0.175-2.95 0.272-4.497 0.272-1.336 0-2.642-0.073-3.899-0.205l-0.562 0.913-0.308 0.502c-0.248 1.602-0.381 3.349-0.381 5.186v-0.006z">
      </path>
      <path fill="#0b7572" style="fill: var(--color1, #0b7572)"
        d="M11.184 10.32c1.088 0.103 2.212 0.151 3.361 0.151 1.481 0 2.914-0.085 4.286-0.254-0.218-0.87-0.472-1.674-0.756-2.4-0.943-2.412-2.194-3.905-3.536-3.905-0.399 0-0.792 0.133-1.173 0.387 0.018 0.115 0.030 0.236 0.036 0.357 0 0.006 0 0.018 0 0.024 0 0.012 0 0.030 0.006 0.042 0.006 0.060 0.012 0.121 0.012 0.181 0 0.006 0 0.006 0 0.018 0 0.073 0 0.139 0 0.212 0 1.064-0.441 2.237-0.997 3.137l-1.251 2.043 0.012 0.006z">
      </path>
      <path fill="#0b7572" style="fill: var(--color1, #0b7572)"
        d="M18.939 7.485c0.308 0.786 0.58 1.662 0.816 2.611 0.236-0.036 0.472-0.073 0.701-0.115 1.674-0.284 3.24-0.689 4.648-1.191-0.363-0.429-0.756-0.834-1.167-1.215-1.916-1.765-4.34-2.998-7.018-3.464 0.774 0.78 1.463 1.928 2.025 3.367l-0.006 0.006z">
      </path>
      <path fill="#0b7572" style="fill: var(--color1, #0b7572)"
        d="M19.955 10.997c0.423 2.031 0.659 4.34 0.659 6.788s-0.236 4.757-0.659 6.788c0.218 0.030 0.435 0.067 0.653 0.103 1.844 0.314 3.56 0.768 5.102 1.336 1.699-2.303 2.702-5.15 2.702-8.233s-1.003-5.93-2.702-8.233c-1.541 0.568-3.258 1.022-5.102 1.336-0.218 0.036-0.435 0.073-0.653 0.103v0.012z">
      </path>
      <path fill="#0b7572" style="fill: var(--color1, #0b7572)"
        d="M19.756 25.48c-0.23 0.949-0.508 1.826-0.816 2.611-0.562 1.433-1.245 2.587-2.025 3.367 2.684-0.465 5.102-1.692 7.018-3.464 0.411-0.381 0.804-0.786 1.167-1.215-1.408-0.502-2.974-0.901-4.648-1.191-0.23-0.042-0.465-0.079-0.701-0.115l0.006 0.006z">
      </path>
      <path fill="#0b7572" style="fill: var(--color1, #0b7572)"
        d="M9.546 5.835c-0.375 0.375-0.895 0.611-1.469 0.611s-1.094-0.23-1.469-0.611c-0.375-0.375-0.611-0.895-0.611-1.469s0.23-1.094 0.611-1.469c0.375-0.375 0.895-0.611 1.469-0.611s1.094 0.23 1.469 0.611c0.375 0.375 0.61 0.895 0.61 1.469s-0.23 1.094-0.61 1.469zM9.341 11.565c-0.012 0.018-0.024 0.036-0.036 0.054l0.036-0.054zM12.496 4.741c0 0.006 0 0.012 0 0.012 0-0.006 0-0.012 0-0.012zM4.952 2.009c-0.804 0.804-1.3 1.91-1.3 3.131 0 0.744 0.405 1.777 0.997 2.895 0.006 0.006 0.012 0.012 0.024 0.018 0.030 0.030 0.060 0.066 0.079 0.103l0.399 0.629c0.006 0.006 0.006 0.012 0.012 0.018l2.992 4.715 0.641-1.040c0.012-0.018 0.024-0.042 0.036-0.060l0.484-0.786 0.036-0.060 2.315-3.772c0.514-1.034 0.858-1.971 0.858-2.654 0-0.079 0-0.133 0-0.175 0-0.006 0-0.012 0-0.012 0-0.036-0.006-0.085-0.012-0.145 0-0.012 0-0.024-0.006-0.042 0-0.006 0-0.012 0-0.012-0.097-1.064-0.568-2.019-1.281-2.732-0.804-0.804-1.91-1.3-3.131-1.3s-2.327 0.496-3.131 1.3l-0.012-0.018z">
      </path>
    </symbol>
    <symbol id="icon-box" viewBox="0 0 53 32">
      <path fill="#0b7572" style="fill: var(--color1, #0b7572)"
        d="M18.080 24.953l16.225 6.78v-16.515l-16.226-6.027v15.762z"></path>
      <path fill="#0b7572" style="fill: var(--color1, #0b7572)"
        d="M46.767 16.319l-4.52 1.622v-4.578l-5.969 2.086v16.283l16.805-6.78v-15.472l-6.316 2.26v4.578zM41.378 28.025l-0.695 0.29v-3.651l0.695-0.232v3.593zM42.594 27.561l-0.695 0.29v-3.651l0.695-0.232v3.593zM45.028 26.576l-0.695 0.232v-3.593l0.695-0.232v3.593zM46.245 26.054l-0.695 0.29v-3.535l0.695-0.232v3.477zM48.679 21.592l0.695-0.232v3.419l-0.695 0.29v-3.477zM47.288 22.114l0.695-0.232v3.477l-0.695 0.29v-3.535z">
      </path>
      <path fill="#0b7572" style="fill: var(--color1, #0b7572)"
        d="M46.765 9.481l6.316-2.318-17.5-6.143-5.621 1.97 16.805 6.374v0.116z"></path>
      <path fill="#0b7572" style="fill: var(--color1, #0b7572)"
        d="M24.976 4.729l-6.896 2.434 17.5 6.374 6.606-2.376-17.211-6.432z"></path>
      <path fill="#0b7572" style="fill: var(--color1, #0b7572)" d="M0.928 23.446h14.371v-2.898h-13.038l-1.333 2.898z">
      </path>
      <path fill="#0b7572" style="fill: var(--color1, #0b7572)" d="M3.305 18.347h11.995v-2.897h-10.662l-1.333 2.897z">
      </path>
      <path fill="#0b7572" style="fill: var(--color1, #0b7572)"
        d="M5.68 13.074v0.232h9.619v-2.897h-8.345l-1.275 2.666z"></path>
    </symbol>
    <symbol id="icon-icon" viewBox="0 0 29 32">
      <path fill="#0b7572" style="fill: var(--color1, #0b7572)"
        d="M23.828 20.806h-18.448c0.002-0.581-0.183-1.148-0.529-1.615s-0.833-0.81-1.39-0.978v-12.509c0.43-0.121 0.821-0.351 1.136-0.667s0.543-0.709 0.662-1.14h8.645c0.126 0.428 0.358 0.818 0.673 1.133s0.705 0.547 1.133 0.673v4.037l-1.617 1.625-0.864-0.864c-0.071-0.071-0.155-0.128-0.248-0.167s-0.192-0.059-0.293-0.059c-0.1 0-0.2 0.020-0.293 0.059s-0.177 0.095-0.248 0.167c-0.072 0.071-0.128 0.156-0.167 0.25s-0.059 0.194-0.059 0.295c0 0.101 0.020 0.201 0.059 0.295s0.096 0.178 0.167 0.25l0.864 0.864-0.864 0.864c-0.072 0.072-0.128 0.156-0.167 0.25s-0.059 0.194-0.059 0.295c0 0.101 0.020 0.201 0.059 0.295s0.096 0.178 0.167 0.25c0.071 0.071 0.155 0.128 0.248 0.167s0.192 0.059 0.293 0.059c0.1 0 0.2-0.020 0.293-0.059s0.177-0.095 0.248-0.167l0.864-0.864 1.841 1.841c0.071 0.071 0.155 0.128 0.248 0.167s0.192 0.059 0.293 0.059 0.2-0.020 0.293-0.059c0.093-0.039 0.177-0.095 0.248-0.167l1.911-1.85 0.864 0.864c0.069 0.080 0.155 0.145 0.25 0.191s0.2 0.071 0.306 0.075c0.106 0.004 0.211-0.015 0.31-0.054s0.188-0.098 0.262-0.173c0.075-0.075 0.133-0.165 0.171-0.264s0.056-0.204 0.051-0.31-0.031-0.21-0.077-0.305c-0.046-0.095-0.112-0.18-0.193-0.249l-0.864-0.864 0.864-0.864c0.072-0.072 0.128-0.156 0.167-0.25s0.059-0.194 0.059-0.295c0-0.101-0.020-0.201-0.059-0.295s-0.096-0.178-0.167-0.25c-0.071-0.071-0.155-0.128-0.248-0.167s-0.192-0.059-0.293-0.059c-0.1 0-0.2 0.020-0.293 0.059s-0.177 0.095-0.248 0.167l-0.864 0.864-1.608-1.617v-4.037c0.446-0.133 0.85-0.38 1.172-0.716s0.551-0.75 0.665-1.201c0.114-0.451 0.109-0.924-0.015-1.373s-0.362-0.858-0.691-1.187c-0.329-0.329-0.738-0.567-1.187-0.691s-0.922-0.129-1.373-0.015c-0.451 0.114-0.865 0.343-1.201 0.665s-0.583 0.726-0.716 1.172h-8.645c-0.136-0.441-0.383-0.84-0.717-1.158s-0.745-0.545-1.193-0.658c-0.447-0.113-0.917-0.109-1.362 0.011s-0.853 0.354-1.182 0.677c-0.329 0.323-0.57 0.726-0.698 1.169s-0.141 0.912-0.035 1.362c0.105 0.449 0.324 0.864 0.636 1.204s0.706 0.594 1.145 0.738v12.526c-0.557 0.168-1.044 0.511-1.39 0.978s-0.531 1.034-0.529 1.615c0 0.251 0 0.484 0 0.692-0.004 0.023-0.004 0.046 0 0.069v4.616c0.007 1.422 0.576 2.784 1.583 3.788s2.371 1.569 3.794 1.571h18.448c1.426 0 2.794-0.567 3.802-1.575s1.575-2.376 1.575-3.802-0.566-2.794-1.575-3.802c-1.008-1.008-2.376-1.575-3.802-1.575zM17.776 12.447l-1.262 1.305-1.288-1.305 1.288-1.297 1.262 1.297zM23.828 28.483c-0.457 0.002-0.905-0.132-1.286-0.385s-0.678-0.613-0.854-1.035c-0.176-0.422-0.222-0.887-0.133-1.335s0.309-0.861 0.632-1.184c0.323-0.323 0.735-0.543 1.184-0.632s0.913-0.042 1.335 0.133 0.782 0.473 1.035 0.854c0.253 0.381 0.387 0.828 0.385 1.286 0 0.61-0.242 1.195-0.674 1.626s-1.016 0.674-1.626 0.674zM3.080 26.183c-0.002-0.457 0.132-0.905 0.385-1.286s0.613-0.678 1.035-0.854 0.887-0.222 1.335-0.133c0.449 0.089 0.861 0.309 1.184 0.632s0.543 0.735 0.632 1.184c0.089 0.449 0.042 0.913-0.133 1.335s-0.473 0.782-0.854 1.035-0.828 0.387-1.286 0.385c-0.609-0.002-1.193-0.245-1.623-0.676s-0.674-1.014-0.676-1.623zM19.981 26.183c0 0.457-0.136 0.904-0.39 1.283s-0.615 0.676-1.037 0.85c-0.422 0.174-0.887 0.22-1.335 0.13s-0.859-0.31-1.182-0.634c-0.322-0.324-0.542-0.736-0.63-1.184s-0.041-0.913 0.135-1.334c0.176-0.422 0.473-0.781 0.854-1.034s0.828-0.387 1.285-0.385c0.611 0.002 1.196 0.246 1.627 0.679s0.673 1.018 0.673 1.629zM13.834 26.183c0 0.456-0.135 0.903-0.389 1.282s-0.614 0.675-1.036 0.85c-0.422 0.175-0.886 0.22-1.334 0.131s-0.859-0.309-1.182-0.632c-0.323-0.323-0.543-0.734-0.632-1.182s-0.043-0.912 0.131-1.334c0.175-0.422 0.471-0.782 0.85-1.036s0.826-0.389 1.282-0.389c0.612 0 1.199 0.243 1.632 0.676s0.676 1.020 0.676 1.632z">
      </path>
      <path fill="#0b7572" style="fill: var(--color1, #0b7572)"
        d="M5.38 26.953c0.425 0 0.769-0.345 0.769-0.769s-0.344-0.769-0.769-0.769c-0.425 0-0.769 0.344-0.769 0.769s0.344 0.769 0.769 0.769z">
      </path>
      <path fill="#0b7572" style="fill: var(--color1, #0b7572)"
        d="M11.526 26.953c0.425 0 0.769-0.345 0.769-0.769s-0.344-0.769-0.769-0.769c-0.425 0-0.769 0.344-0.769 0.769s0.345 0.769 0.769 0.769z">
      </path>
      <path fill="#0b7572" style="fill: var(--color1, #0b7572)"
        d="M17.681 26.953c0.425 0 0.769-0.345 0.769-0.769s-0.345-0.769-0.769-0.769c-0.425 0-0.769 0.344-0.769 0.769s0.344 0.769 0.769 0.769z">
      </path>
      <path fill="#0b7572" style="fill: var(--color1, #0b7572)"
        d="M23.828 26.953c0.425 0 0.769-0.345 0.769-0.769s-0.345-0.769-0.769-0.769c-0.425 0-0.769 0.344-0.769 0.769s0.344 0.769 0.769 0.769z">
      </path>
    </symbol>
    <symbol id="icon-build" viewBox="0 0 32 32">
      <path fill="#0b7572" style="fill: var(--color1, #0b7572)"
        d="M12.295 0.439c-2.228 4.808-7.582 0.811-10.374 3.705 0.65-4.978 4.994-0.967 10.374-3.705zM5.626 4.885v9.077l5.187 2.779v-5.187l10.374 5.187v-5.187l10.374 5.187v14.82h-31.121v-26.675h5.187zM27.485 21.557h-5.187v4.446h5.187v-4.446zM18.594 21.557h-5.187v4.446h5.187v-4.446zM9.702 21.557h-5.187v4.446h5.187v-4.446z">
      </path>
    </symbol>
  </defs>
</svg>